<svg xmlns:svg="http://www.w3.org/2000/svg" xmlns="http://www.w3.org/2000/svg" xmlns:xlink="http://www.w3.org/1999/xlink" xmlns:inkscape="http://www.inkscape.org/namespaces/inkscape" width="2299.77001953" height="1024.0" id="svgoverlay" version="1.1">
  <defs id="defs4">
    <clipPath id="edgeclip">
      <path id="clippath" d="M1739.661865 124.207031 L1742.554199 123.885742, 1744.227783 122.819824, 1743.173096 120.649719, 1744.908325 118.475342, 1745.296265 118.574951, 1743.824097 115.832642, 1745.366333 113.664795, 1749.071411 114.145386, 1749.479980 114.340271, 1750.907959 111.633545, 1752.561157 109.155701, 1754.166260 106.156250, 1756.971069 102.045410, 1763.867920 102.147827, 1773.218506 104.824951, 1780.829468 107.688538, 1786.605835 112.770447, 1789.472412 116.030212, 1788.551392 120.039062, 1788.518921 124.984924, 1790.042725 127.760193, 1792.573120 131.089844, 1791.849854 131.527954, 1790.732544 133.183777, 1785.750122 134.259216, 1779.829956 135.205139, 1773.688477 133.433105, 1772.570801 130.588745, 1776.135376 134.179199, 1778.646729 136.011658, 1779.764038 140.375183, 1776.416382 139.855408, 1774.998047 141.282227, 1772.482666 139.013611, 1772.316406 138.824646, 1770.052002 138.190186, 1771.637939 138.042542, 1773.462769 135.944092, 1772.049438 139.924988, 1766.295532 145.203003, 1757.465942 150.449341, 1749.482056 152.076843, 1745.163696 151.406677, 1742.217407 148.649780, 1741.031860 145.648193, 1741.701172 145.538879, 1744.673828 145.528687, 1742.805908 144.626953, 1741.583130 142.441406, 1740.799683 142.523376, 1738.292480 142.256104, 1735.846313 142.062378, 1734.899414 148.476624, 1732.147095 147.861877, 1727.500732 147.112915, 1724.994385 146.375610, 1719.960938 146.140259, 1715.742310 145.945374, 1715.178589 146.477417, 1713.427734 145.234070, 1710.443726 145.971558, 1708.341431 146.111023, 1707.539795 145.887939, 1706.431763 144.405029, 1704.776978 144.141724, 1703.267578 145.028320, 1699.744873 144.864014, 1696.744263 143.528015, 1695.398804 141.387207, 1692.346924 139.859863, 1687.455078 140.167725, 1684.978516 138.848572, 1685.655396 136.541870, 1682.615723 135.837646, 1678.153442 134.730591, 1677.019775 133.164551, 1673.310547 133.810120, 1669.233765 133.608643, 1668.016602 134.004700, 1663.517822 133.462585, 1659.485107 133.133057, 1655.644165 134.351440, 1651.538208 134.249268, 1649.843994 135.480957, 1648.508789 136.226562, 1646.363770 136.014282, 1641.471680 135.943298, 1636.162109 136.701294, 1633.095581 137.328491, 1626.048218 140.315186, 1617.487915 143.386597, 1609.088379 146.372986, 1599.728027 148.315979, 1581.055054 154.118469, 1559.938110 157.742615, 1548.507935 158.619080, 1542.421997 157.486755, 1532.476440 158.470032, 1530.044678 157.607544, 1526.563354 155.984009, 1525.194580 155.546692, 1522.469604 155.455261, 1521.183838 154.504028, 1519.630249 155.183594, 1521.666992 156.743225, 1523.760132 158.580139, 1522.156494 160.732605, 1521.573608 160.350952, 1520.273071 162.636169, 1520.705078 161.645142, 1519.258301 162.582642, 1523.734131 164.587341, 1518.230591 163.560730, 1516.304077 162.008423, 1516.563232 163.631897, 1511.602905 163.131348, 1508.447998 161.569153, 1509.855591 160.998596, 1510.283691 162.031494, 1511.998657 162.105286, 1514.791992 161.942078, 1516.275391 162.502563, 1516.068359 164.165771, 1515.875366 162.910706, 1523.280273 164.311768, 1527.345703 162.452332, 1526.739014 164.675903, 1524.487671 169.623108, 1513.311646 178.620972, 1517.499878 178.492065, 1508.872925 181.343140, 1503.936768 175.024475, 1500.576904 170.229492, 1498.006470 165.648376, 1497.178955 164.052368, 1496.372314 160.822571, 1495.865967 159.980103, 1496.187012 156.839722, 1496.663574 154.967957, 1497.590454 153.010986, 1499.193726 150.486633, 1497.767822 148.342651, 1503.468018 147.867798, 1504.652588 146.461914, 1507.064575 144.538696, 1508.828369 144.432556, 1512.041992 143.116699, 1513.973145 141.372498, 1516.896606 141.312988, 1517.812012 141.138000, 1518.952148 140.637451, 1521.119995 138.922913, 1522.360107 138.991882, 1524.299561 137.423401, 1525.130737 137.813354, 1528.837891 138.779602, 1531.200562 137.311951, 1532.815796 137.775696, 1535.421631 136.986450, 1538.009155 136.265015, 1538.548828 136.827637, 1542.015137 135.292175, 1542.372681 135.395325, 1542.814087 134.426025, 1545.315186 134.143921, 1547.062012 134.139160, 1550.495361 132.186157, 1551.972656 131.869690, 1553.837158 130.531128, 1557.228882 130.804871, 1561.174805 132.601013, 1562.996338 132.823242, 1565.929077 133.318665, 1569.250977 131.818237, 1569.940674 130.787292, 1570.923218 129.258545, 1572.388916 132.150513, 1575.054077 132.650696, 1578.099121 132.190430, 1578.853149 131.232239, 1580.543213 130.186096, 1581.030884 133.609741, 1584.824585 134.654053, 1585.468384 134.905579, 1591.548096 135.627014, 1591.584595 135.859375, 1594.633667 137.522400, 1595.460693 137.922424, 1597.518311 139.207886, 1599.972290 141.147888, 1599.944214 141.169312, 1602.833130 139.967163, 1604.320312 143.218689, 1606.068481 144.152710, 1607.572876 143.260864, 1610.931885 143.937561, 1611.399292 143.794250, 1613.430420 144.189819, 1615.180054 143.063049, 1617.190552 144.228333, 1619.681396 144.412781, 1619.650879 144.769104, 1621.602173 145.966614, 1624.009399 146.238281, 1626.823853 147.648865, 1627.194092 147.509766, 1628.062988 150.239746, 1631.246094 151.623291, 1631.662354 151.518127, 1634.578003 153.671814, 1635.262451 154.528748, 1638.676392 154.593018, 1642.368530 154.698120, 1641.989624 157.225342, 1645.139282 156.526733, 1645.299194 156.304749, 1646.932739 159.438110, 1647.217651 159.657410, 1650.193359 160.567261, 1650.201050 160.684753, 1651.277588 163.260681, 1653.321411 164.229675, 1655.443604 163.870361, 1655.182007 166.341125, 1657.610107 167.444580, 1658.707153 170.110413, 1660.593994 173.593567, 1661.580566 174.850098, 1662.827637 176.352234, 1665.286865 176.212463, 1670.100220 177.836609, 1675.194214 178.833435, 1682.738403 179.812866, 1688.969727 179.456177, 1697.405762 179.783691, 1704.678955 178.693848, 1706.244995 178.078430, 1709.319702 175.048645, 1711.360596 174.348389, 1713.413818 171.193237, 1714.250977 166.354858, 1713.926147 165.925049, 1714.993408 165.250610, 1717.523315 164.053223, 1717.779541 162.900452, 1718.354736 159.162781, 1718.600708 159.133789, 1719.414429 156.167175, 1719.112183 155.141052, 1720.856079 155.526001, 1719.507568 151.458557, 1722.462769 150.673096, 1722.408203 149.683411, 1723.425537 146.161316, 1724.753662 146.806885, 1725.619629 144.132446, 1727.664185 141.779907, 1727.656372 141.776123, 1725.478027 138.522156, 1728.738525 139.199036, 1730.691772 140.439087, 1731.265869 138.611572, 1731.658447 139.185852, 1734.140381 138.120300, 1735.700195 137.531982, 1736.470825 136.364197, 1739.920532 138.056396, 1738.656372 134.434814, 1738.879395 134.612549, 1741.509277 133.929626, 1738.716431 132.775879, 1738.244751 133.047424, 1736.277954 130.483337, 1738.544434 128.965088, 1738.337769 129.070374, 1740.267578 127.552734, 1740.470825 127.810303, 1741.644409 126.220093, 1739.661865 124.207031Z M1740.578857 33.033081 L1741.266602 34.708374, 1742.605469 36.019165, 1743.355957 37.407715, 1744.930298 38.072998, 1745.337524 40.013123, 1747.558594 38.775574, 1750.629761 37.428223, 1750.810303 40.278809, 1753.781494 39.266479, 1752.494263 41.958984, 1752.954834 44.189819, 1755.151123 44.055847, 1755.862183 45.995972, 1757.566284 46.656616, 1759.288330 45.894104, 1761.969238 44.710266, 1763.487061 45.898132, 1767.007324 44.292664, 1768.853027 44.437744, 1770.374146 42.307861, 1774.164551 43.448059, 1776.848633 44.020142, 1777.131348 43.881897, 1779.688599 44.082886, 1781.859985 42.881226, 1784.083008 42.905579, 1786.804932 44.958984, 1789.667114 45.855408, 1792.184204 44.125610, 1794.148682 45.993469, 1797.041992 45.404968, 1799.213135 45.641418, 1801.487793 47.965332, 1804.029419 48.835144, 1803.970459 49.253052, 1806.872070 51.767578, 1809.000122 53.476013, 1810.032471 53.456116, 1812.327637 51.584961, 1814.194946 54.190796, 1817.281860 54.470154, 1819.441650 54.740356, 1821.901489 55.401062, 1823.769775 52.354675, 1826.611206 51.191040, 1829.360718 52.659912, 1831.496460 51.833435, 1832.739624 53.418030, 1835.311279 56.688293, 1838.434814 56.778625, 1839.667480 59.062195, 1839.961060 58.893799, 1844.182739 62.376038, 1844.799072 62.353882, 1846.804199 64.393005, 1850.193359 65.777893, 1850.709229 66.042358, 1855.524292 67.547974, 1856.823853 67.535339, 1859.666748 68.156555, 1859.947144 68.130981, 1862.992920 69.582581, 1864.015259 69.997498, 1867.235718 71.242859, 1867.780518 71.001770, 1871.087036 71.526611, 1871.016968 71.830933, 1873.247314 74.925476, 1874.000244 78.186584, 1877.039673 79.917419, 1877.864258 80.201477, 1880.889038 84.260376, 1881.863037 84.628479, 1885.172974 87.316467, 1886.083984 88.525024, 1889.062622 91.463745, 1892.360474 93.589111, 1894.232422 97.292786, 1897.767822 98.221008, 1900.939453 100.991638, 1901.703003 100.982483, 1903.374634 105.763977, 1905.111694 108.492371, 1908.272827 111.832153, 1911.199341 115.772400, 1913.674438 117.548279, 1919.387573 119.078735, 1921.490479 120.844604, 1923.088257 121.918335, 1925.386841 122.223572, 1926.801147 120.113770, 1926.174072 122.837830, 1925.688110 124.355347, 1929.364746 125.147644, 1932.137451 124.003235, 1930.526733 125.354309, 1934.612183 126.523987, 1934.771606 127.049561, 1938.293335 128.348999, 1938.398071 128.470886, 1939.036865 131.309570, 1940.417358 133.804504, 1944.960205 138.971375, 1950.811890 144.480896, 1955.110596 147.751892, 1960.427002 153.011841, 1968.345947 157.063232, 1971.725586 158.179626, 1986.578247 162.086731, 1993.098389 163.829468, 2006.573730 166.486877, 2010.080933 166.634888, 2021.193726 167.437500, 2025.413574 167.013733, 2031.322754 167.179626, 2035.520508 166.703552, 2039.689941 167.722534, 2043.971680 166.642517, 2044.764160 164.888550, 2046.990234 162.902710, 2048.126221 160.498718, 2049.772461 161.529236, 2049.688721 161.043396, 2050.529785 158.350830, 2052.490479 159.730896, 2053.991211 162.382141, 2056.352539 160.264526, 2057.266357 160.060181, 2059.634521 159.524414, 2061.406006 157.794312, 2061.450195 157.790955, 2064.466309 159.178711, 2064.545898 159.252014, 2066.456299 156.950623, 2068.411133 159.608337, 2072.214844 160.448181, 2072.799561 160.823242, 2076.958252 162.359497, 2077.572266 162.940491, 2079.471924 162.496765, 2081.024902 162.412109, 2083.614014 163.964722, 2083.919189 162.211426, 2086.445801 163.391052, 2090.152832 163.173584, 2093.740967 163.927124, 2093.873535 164.034912, 2097.613037 165.271973, 2099.880371 163.891602, 2101.948975 167.383179, 2104.750000 166.214478, 2108.080322 165.330505, 2110.433105 167.263733, 2115.081543 165.175842, 2117.429932 162.376526, 2120.705811 162.549561, 2121.193115 159.791992, 2124.352539 161.172058, 2125.851318 157.605896, 2127.105957 159.408386, 2129.377441 158.028381, 2131.922363 159.319458, 2132.392090 159.338684, 2134.708984 158.055847, 2136.414062 160.161743, 2138.821533 161.982605, 2140.717529 160.327454, 2142.111328 161.487000, 2144.254639 163.080566, 2146.539307 161.904236, 2149.743164 162.717285, 2151.958984 165.222046, 2153.310059 162.434265, 2154.064209 158.916748, 2156.083496 160.750549, 2157.314209 158.908936, 2159.124023 159.243469, 2160.966553 158.527771, 2163.894043 159.599426, 2165.579834 159.410156, 2168.474609 159.708374, 2170.261230 159.697449, 2174.185059 161.387024, 2174.255859 161.450928, 2177.283447 159.825073, 2180.015625 161.643127, 2180.017334 161.509583, 2183.940430 161.477295, 2186.469971 160.992249, 2187.756348 161.006836, 2190.102539 160.861938, 2192.374512 163.409119, 2195.199463 163.391724, 2197.317871 164.636536, 2199.707520 163.722961, 2201.727783 165.152100, 2201.781006 165.212891, 2204.637939 165.919556, 2206.856689 167.882507, 2209.254883 166.139282, 2212.977051 167.080261, 2213.431641 166.901917, 2216.298828 163.613892, 2216.276855 163.537354, 2219.731445 167.252625, 2219.845947 167.212402, 2221.752441 168.502075, 2223.571533 168.263245, 2226.136230 167.470764, 2228.074463 169.595459, 2229.139893 171.619446, 2231.139648 169.598145, 2233.283447 169.229004, 2235.687256 170.257935, 2236.919434 171.190613, 2239.113525 170.774902, 2240.725586 172.315796, 2242.276855 171.529907, 2245.430908 172.147034, 2246.936768 174.775940, 2247.664062 171.614990, 2249.962158 172.751526, 2253.856934 168.842102, 2252.446777 171.673096, 2252.049561 174.692932, 2251.977539 179.564331, 2251.296631 181.729919, 2253.036377 181.419800, 2254.312500 183.459717, 2253.104492 186.730469, 2253.353516 190.222351, 2252.873291 194.047241, 2255.510742 193.347961, 2255.808105 195.854126, 2257.109619 199.330505, 2257.686768 203.171143, 2261.206299 202.015564, 2260.717773 204.903381, 2263.018311 207.329956, 2264.826904 207.434082, 2267.673828 209.505066, 2268.948975 209.211426, 2271.266846 211.401123, 2273.958252 209.694458, 2273.581055 213.302063, 2275.005859 214.560120, 2276.231934 216.778442, 2276.656250 221.254578, 2281.276611 222.476990, 2288.840332 218.384644, 2289.258789 218.060181, 2290.613525 220.605469, 2290.690674 220.538574, 2294.367432 221.371948, 2294.348633 221.380371, 2296.596191 222.731323, 2298.593018 224.314453, 2297.768555 227.302734, 2297.699951 227.090881, 2299.770020 228.513550, 2296.654785 230.113220, 2296.156982 233.131653, 2298.608154 235.261902, 2299.350586 237.150024, 2299.364746 240.033936, 2299.280273 243.442993, 2297.539307 246.387268, 2298.751221 249.904846, 2297.580566 253.580444, 2298.296875 258.980896, 2299.416748 261.825928, 2297.431396 264.752380, 2297.066162 268.116516, 2295.311279 270.130798, 2295.829834 272.666321, 2294.718262 274.319885, 2295.225830 278.475769, 2295.214355 278.469238, 2295.102783 283.459045, 2293.061768 284.747192, 2293.184082 285.275696, 2293.104980 289.637573, 2293.944336 293.078674, 2292.134033 294.676880, 2293.563232 296.549377, 2292.278564 299.113953, 2290.505859 301.875671, 2286.442627 301.873291, 2288.056641 306.667603, 2287.109131 310.293762, 2287.519043 314.737671, 2287.928711 316.955566, 2285.973877 317.384766, 2284.828613 319.919800, 2286.522217 325.079529, 2285.191162 328.733521, 2285.307617 329.227966, 2284.243652 333.678406, 2285.176514 336.409485, 2283.707764 339.331360, 2283.992188 345.432007, 2283.361328 350.752747, 2283.190918 355.592773, 2280.579590 357.940369, 2280.093994 363.095886, 2279.495850 363.703613, 2277.991455 367.668640, 2276.520264 371.976746, 2275.067383 376.684937, 2273.993652 378.606934, 2271.236084 382.314148, 2269.057861 388.457397, 2269.127197 393.659546, 2265.119385 396.104492, 2266.226318 400.679016, 2263.122314 402.640137, 2263.132324 406.226074, 2264.536377 409.618408, 2263.050537 412.720703, 2263.170410 416.927490, 2261.400391 418.090698, 2262.610596 422.471008, 2259.098389 427.270081, 2258.770508 429.394409, 2256.697266 437.456360, 2254.917236 445.474182, 2254.723877 453.204163, 2251.582275 462.026245, 2248.756592 469.074036, 2247.699219 478.530457, 2247.764160 489.403870, 2250.134033 495.965942, 2251.550049 505.668762, 2253.468506 513.672058, 2256.384033 517.491028, 2257.411865 522.276917, 2259.733398 527.074707, 2258.039307 529.984924, 2260.328613 532.949097, 2260.408447 537.117310, 2260.506592 537.172607, 2261.748779 539.351685, 2263.351807 542.208130, 2262.087402 544.809631, 2263.408203 547.569153, 2263.327881 549.866211, 2265.838135 553.076172, 2266.319092 557.501770, 2266.056396 561.342041, 2266.695068 564.430115, 2266.940674 569.468018, 2269.211914 573.529053, 2273.359375 577.793579, 2276.500244 582.150757, 2278.211914 588.033386, 2277.512207 587.627686, 2276.777100 591.766968, 2276.797363 596.427429, 2275.389893 601.184509, 2272.703857 604.324219, 2272.492188 608.838318, 2271.405029 612.973022, 2269.105957 613.680664, 2268.513428 616.989990, 2270.163818 619.041992, 2266.550781 619.570312, 2264.081543 622.278198, 2262.833984 624.979126, 2259.716797 626.918579, 2258.435791 631.856201, 2258.085693 634.974243, 2257.067627 638.329712, 2254.539062 640.436218, 2252.020752 642.071167, 2250.409180 647.118164, 2247.437744 648.963074, 2245.609863 652.392273, 2244.182373 656.488892, 2241.460449 657.502014, 2241.448730 657.585754, 2239.531006 660.071533, 2239.171387 663.483521, 2237.259277 666.977661, 2235.190674 667.443848, 2235.211670 670.104736, 2234.721924 671.108276, 2234.499023 672.347900, 2231.146484 675.311890, 2230.417725 677.582031, 2230.304688 677.395203, 2228.250977 679.513794, 2227.750244 683.219482, 2224.035889 685.372925, 2223.304443 687.857422, 2221.072510 691.349854, 2221.512939 694.240967, 2222.400635 696.922974, 2225.905029 698.824097, 2226.053467 698.756348, 2225.544189 701.719971, 2222.244141 699.862610, 2218.409180 701.272949, 2216.696777 698.918396, 2214.616699 699.981323, 2211.475342 701.361145, 2209.757568 700.561401, 2207.235107 699.408630, 2204.539307 698.013367, 2201.959473 699.037903, 2199.458496 700.031006, 2199.464600 700.105347, 2197.546631 701.735352, 2195.091553 703.096680, 2195.312988 705.821655, 2193.535645 709.747620, 2191.760986 711.004761, 2190.041260 712.366211, 2188.028564 711.863281, 2185.194824 714.146057, 2184.027832 717.630981, 2182.514648 721.366577, 2182.702393 721.732117, 2180.911133 725.605591, 2180.402344 728.499634, 2178.288086 732.894775, 2175.286865 737.668945, 2175.219238 737.710083, 2172.141846 738.949280, 2165.741455 741.037170, 2164.406982 743.625854, 2164.055176 745.145996, 2163.427734 744.191467, 2160.186035 746.399780, 2157.337402 746.118286, 2158.624268 744.102295, 2156.528076 742.563599, 2158.020508 739.967651, 2154.325439 740.254150, 2157.647705 737.359741, 2152.603516 737.438965, 2151.291748 736.132935, 2146.823975 734.715454, 2145.573486 732.849365, 2144.856445 731.613831, 2147.190430 729.421204, 2148.094482 727.977051, 2153.268066 728.079895, 2157.499023 726.350098, 2155.093506 727.326843, 2153.354004 731.857178, 2152.972412 732.695862, 2152.101562 730.340698, 2148.015137 733.183228, 2148.901367 731.114075, 2147.795410 726.752930, 2147.982178 723.372986, 2146.576660 723.758057, 2146.018799 723.927979, 2144.328857 725.922852, 2144.270264 726.204651, 2140.017822 729.653809, 2141.183838 726.701294, 2137.510254 729.768433, 2137.308105 726.991943, 2138.213379 724.254272, 2138.407715 722.217896, 2138.300781 721.825012, 2135.770752 722.916626, 2135.735596 723.107178, 2132.037598 726.333496, 2132.619385 723.277222, 2130.534668 726.696289, 2129.877930 724.353455, 2129.856445 725.118530, 2128.107910 723.288940, 2127.018311 722.864990, 2123.720947 727.275391, 2123.620605 727.725891, 2122.135742 729.989258, 2122.134277 725.203003, 2120.010742 723.692993, 2117.497559 726.745361, 2117.143066 723.880432, 2113.430908 723.881226, 2110.962646 723.226990, 2108.086914 726.377197, 2107.189941 723.643738, 2103.372070 724.160645, 2098.280273 726.648010, 2094.382812 728.883667, 2093.307129 728.604187, 2092.756836 728.815430, 2090.358643 730.516968, 2088.900635 731.629883, 2086.835938 733.724487, 2084.875732 731.680298, 2082.580322 731.244873, 2079.997803 731.624146, 2078.778320 731.637817, 2075.371338 733.201172, 2070.934814 734.466797, 2069.142334 735.624023, 2066.351074 735.818115, 2063.375977 734.193176, 2063.229736 737.053101, 2059.964600 736.828186, 2053.783447 739.480347, 2051.918213 738.704224, 2051.155762 739.483032, 2047.916138 742.019287, 2047.336060 740.356934, 2045.390137 741.112488, 2043.343872 741.154663, 2041.890991 745.994873, 2042.671265 740.311462, 2042.594116 740.285522, 2040.497314 738.467529, 2037.155762 739.031738, 2034.732056 738.566650, 2029.622559 739.203857, 2026.411377 739.063049, 2023.902466 740.509949, 2022.514648 739.982178, 2019.266968 739.720581, 2016.856812 737.853516, 2012.195435 736.501404, 2007.271484 737.335083, 1998.152222 740.938843, 1996.175903 741.875366, 1988.183716 744.831421, 1984.934082 746.799011, 1980.911133 750.418762, 1981.169800 748.565186, 1977.487061 749.242126, 1976.813721 749.706177, 1972.824707 749.035339, 1969.378906 750.292114, 1968.639526 750.700745, 1965.992554 749.134705, 1964.234741 750.363708, 1962.026245 749.143066, 1958.540527 749.742554, 1953.261841 750.408691, 1951.689819 751.061157, 1949.816650 751.474854, 1943.953247 753.421021, 1940.428467 755.282471, 1937.099243 756.982849, 1935.175171 757.759460, 1930.438354 761.313110, 1927.301636 764.971436, 1923.411377 766.778809, 1921.702026 769.430603, 1918.662964 772.506958, 1916.037842 774.124329, 1913.738892 774.842224, 1909.098511 779.562195, 1907.651367 781.467163, 1904.964966 784.117798, 1902.308716 788.130615, 1902.345703 790.632690, 1902.051636 795.183289, 1898.166870 797.809448, 1900.354980 791.152710, 1898.352783 803.852417, 1895.339844 800.579590, 1889.279541 800.542908, 1885.556152 800.510925, 1884.101685 799.211182, 1874.762573 806.342651, 1871.414307 808.010803, 1865.673218 813.114868, 1862.418701 815.691772, 1857.968140 819.244568, 1858.290161 820.765747, 1853.292969 823.248779, 1850.216064 822.183960, 1845.246826 824.863037, 1838.847046 827.756836, 1834.602051 829.863586, 1825.296753 834.641724, 1818.941284 838.321411, 1812.296143 841.261780, 1799.514526 848.524231, 1792.652466 852.643433, 1781.714600 859.552002, 1778.227539 862.873779, 1770.745728 868.976257, 1768.985229 873.200806, 1761.683594 876.744385, 1756.904541 879.480591, 1751.102783 882.153992, 1747.809326 883.960754, 1739.773071 888.477478, 1737.552612 890.643188, 1736.114502 891.398254, 1732.836670 894.663330, 1727.766968 899.932312, 1725.112305 898.126465, 1719.631714 900.938538, 1715.154541 903.010742, 1707.566040 908.251831, 1700.202026 911.639893, 1684.001343 919.429138, 1678.767334 923.440369, 1674.763916 927.742249, 1674.210938 927.959534, 1670.834473 928.784363, 1672.526367 931.703186, 1672.163330 931.918762, 1670.039673 931.940674, 1670.595337 934.831238, 1668.015747 934.366333, 1665.812866 936.377136, 1665.321655 937.173096, 1663.854004 938.777588, 1663.925171 941.339050, 1663.895752 941.423767, 1662.726074 944.060730, 1661.068970 945.259888, 1661.138184 945.560425, 1659.162109 946.501770, 1658.867065 946.846375, 1658.176025 948.927551, 1658.131592 948.906555, 1656.416748 951.596985, 1653.896729 952.889526, 1653.945068 953.256287, 1653.292725 953.955505, 1651.873657 957.116638, 1651.818726 957.150696, 1651.993164 956.976868, 1654.538452 960.694763, 1653.320557 960.421204, 1653.280518 960.456726, 1652.655273 960.578857, 1649.843628 958.061401, 1647.239746 958.474976, 1645.891357 958.960693, 1642.223022 960.834839, 1639.867188 962.890564, 1640.711304 964.726318, 1639.378418 967.036072, 1637.272217 964.786499, 1634.874268 966.702576, 1633.248657 968.235229, 1632.066040 966.943542, 1630.391846 969.873474, 1627.591553 967.342957, 1626.463867 968.392822, 1622.315430 968.786987, 1621.780273 968.621094, 1619.273315 970.200378, 1614.812988 969.889648, 1614.752197 969.499451, 1611.801514 968.233765, 1610.131714 968.519470, 1608.081665 972.199036, 1606.841675 969.652039, 1604.637451 971.716187, 1604.508789 971.839172, 1603.000854 972.055664, 1601.226196 971.575195, 1600.085205 971.163757, 1596.299438 970.946411, 1595.351440 970.428589, 1593.972168 968.725220, 1591.612915 972.630493, 1588.907715 970.540649, 1589.450684 974.388062, 1587.585449 971.833496, 1587.530396 971.518677, 1586.030151 973.925598, 1584.414673 971.295410, 1582.796143 970.396240, 1580.790894 972.262817, 1580.595337 970.216064, 1578.284668 970.448730, 1576.370117 969.845581, 1576.360474 969.645081, 1572.265381 967.491394, 1572.199219 967.286072, 1569.936523 967.160339, 1567.768066 965.481934, 1564.418945 965.417175, 1564.398804 965.448242, 1560.301392 964.653687, 1560.286011 964.665405, 1557.687622 966.141968, 1555.656860 964.005249, 1555.145142 963.491089, 1551.457031 962.786560, 1549.313477 960.244812, 1547.822266 957.918945, 1545.193359 957.864014, 1541.536133 956.538330, 1537.133789 956.555786, 1533.304077 957.391357, 1531.377075 960.348389, 1527.238647 961.275208, 1527.216309 961.379944, 1524.807373 964.826050, 1523.087280 964.615417, 1520.868530 970.750977, 1520.476318 971.678589, 1519.167114 973.559448, 1517.376709 975.502441, 1518.637451 978.460022, 1515.467163 978.969482, 1513.569580 982.592102, 1513.504761 982.507812, 1511.651123 984.230042, 1510.213013 982.578979, 1510.008301 982.383911, 1508.498779 980.299744, 1507.266235 982.442810, 1505.116577 981.698730, 1502.440674 981.777405, 1501.144775 981.800903, 1498.649292 980.589233, 1496.560059 980.573303, 1494.827759 978.725037, 1492.070435 977.631226, 1490.639893 975.990662, 1490.252441 975.810730, 1488.520264 973.254639, 1486.417969 974.455322, 1483.361938 975.700806, 1481.026245 973.476501, 1480.699585 973.768860, 1476.568481 973.476746, 1476.174194 973.726013, 1475.861694 973.437988, 1472.281372 974.143127, 1472.130981 974.113831, 1468.924194 974.725708, 1466.921265 973.494873, 1465.825562 975.024353, 1464.382690 973.464233, 1462.680664 974.494629, 1460.339233 972.900757, 1459.927002 972.454773, 1458.514526 971.069885, 1456.024414 972.018799, 1455.641846 972.214966, 1453.725708 970.375122, 1451.488281 971.075806, 1448.049072 970.302917, 1447.913330 970.076721, 1443.952271 968.586670, 1440.628662 966.942322, 1438.382324 966.177551, 1437.621338 966.042664, 1438.264893 962.552490, 1440.955688 959.657654, 1443.447021 959.229370, 1446.459839 960.832031, 1448.700806 963.626099, 1447.508545 966.531433, 1447.334595 966.754395, 1446.441284 970.043701, 1446.502197 971.653564, 1443.519287 972.054626, 1443.581665 971.679810, 1441.246582 973.169006, 1444.548340 975.741211, 1444.793335 975.799683, 1442.251709 977.931335, 1442.712280 977.990967, 1446.339600 979.297424, 1442.366943 981.628540, 1442.629395 981.659424, 1443.804077 983.369385, 1443.868286 983.266785, 1445.104858 984.418579, 1441.724731 984.255249, 1442.729492 986.825195, 1443.326538 987.587891, 1445.494019 989.660217, 1442.775269 989.828369, 1442.719971 989.753479, 1439.594482 990.112671, 1441.180664 992.135315, 1439.175659 991.748962, 1439.599976 991.628784, 1438.381958 993.356934, 1435.571655 994.253357, 1434.038818 995.001648, 1433.234131 996.602356, 1429.668945 996.347107, 1430.016724 996.402771, 1424.932617 997.103210, 1422.571777 996.296631, 1422.463501 996.278870, 1420.882935 998.280334, 1418.985352 1000.238098, 1418.985474 1000.221375, 1416.465820 999.076538, 1416.657959 999.139771, 1416.019287 996.151917, 1416.010498 995.924133, 1415.720093 992.672363, 1412.161987 989.282288, 1408.933350 990.031738, 1406.146484 988.369873, 1406.479736 985.991516, 1406.478149 985.869873, 1403.639282 982.135193, 1404.036011 982.262695, 1400.897583 978.265503, 1401.091675 978.233154, 1397.281616 976.398560, 1395.232300 974.719360, 1399.066162 974.950073, 1396.525269 969.350037, 1397.309082 968.675781, 1397.228394 968.973328, 1396.484253 964.011719, 1395.665161 962.275208, 1393.904785 960.297058, 1393.710571 960.227661, 1389.158813 960.256226, 1389.368652 960.451538, 1385.174194 961.015747, 1386.395630 963.494812, 1384.763794 964.048096, 1382.469360 964.632019, 1378.910645 961.848206, 1375.393677 960.266785, 1374.825317 958.130981, 1370.905396 957.769836, 1367.249146 957.823242, 1364.680176 956.258240, 1362.349976 953.304138, 1361.080200 951.581787, 1358.979370 950.031799, 1356.279785 948.691528, 1352.213623 945.250427, 1347.372803 942.770691, 1344.696655 941.713989, 1343.585083 942.985962, 1341.621216 942.229492, 1339.239868 941.533203, 1338.997925 941.231323, 1335.070801 939.941528, 1331.583618 938.537231, 1331.367798 938.265564, 1329.847046 935.705383, 1326.735962 935.331116, 1324.470215 935.135864, 1325.464355 934.127808, 1322.368896 933.687683, 1319.647217 932.101135, 1320.104492 929.228577, 1318.250488 926.106018, 1316.040894 923.531616, 1314.953003 919.426941, 1313.036743 919.235718, 1312.362671 916.106750, 1310.325806 913.106628, 1309.220825 911.834229, 1307.008545 909.430603, 1305.085327 907.442200, 1301.169678 902.453247, 1298.685425 898.569580, 1296.593994 894.437134, 1295.452393 892.520325, 1291.906616 889.720154, 1290.616333 884.825745, 1289.459106 878.444519, 1285.893188 878.669617, 1283.542114 876.141235, 1280.561279 872.987793, 1278.131714 871.329041, 1274.389160 870.571960, 1273.517090 866.942932, 1273.015381 863.160706, 1272.814819 859.312317, 1269.175903 858.188354, 1268.773438 853.147827, 1270.716064 848.748779, 1269.650513 845.628967, 1268.916992 841.051941, 1268.241943 837.499756, 1266.805420 834.046570, 1267.031982 827.980591, 1265.094238 824.198425, 1265.781982 819.835266, 1262.612183 813.892944, 1262.207520 808.152954, 1260.597412 803.338745, 1258.371216 800.494873, 1257.637695 795.172791, 1258.491455 790.317261, 1256.435425 786.435303, 1258.633911 781.858765, 1259.175293 779.042725, 1258.123047 775.889465, 1256.728882 771.360596, 1253.063477 767.835205, 1254.031372 762.836365, 1250.569458 758.448547, 1251.302002 754.311890, 1251.110474 750.763794, 1250.878296 746.126099, 1248.679688 742.291260, 1249.554565 737.185059, 1249.238037 731.357422, 1249.325439 725.451538, 1247.768433 721.780823, 1246.788940 718.840332, 1247.820679 714.397583, 1250.149414 709.232178, 1249.079590 708.183472, 1249.514404 702.676758, 1249.876465 696.088989, 1251.382812 691.768066, 1253.070312 685.992126, 1254.976685 679.065796, 1256.736938 672.874512, 1255.982422 663.748840, 1255.174072 651.324219, 1253.901489 642.568542, 1252.064331 630.060913, 1251.067505 622.049561, 1244.615845 614.202698, 1241.154785 607.570801, 1237.383423 600.640625, 1232.939819 591.502258, 1230.382202 584.711792, 1228.574219 577.227539, 1226.765381 571.488342, 1224.738281 564.333191, 1221.669067 556.667175, 1219.985352 554.713135, 1217.229614 551.202759, 1216.290771 545.771362, 1215.395020 540.135071, 1212.419067 538.994019, 1210.559570 536.008606, 1208.862427 530.611023, 1207.013184 526.862915, 1208.397095 523.454285, 1205.770874 519.403076, 1206.160645 515.020996, 1203.385376 510.563782, 1204.642212 505.762512, 1202.053589 501.418884, 1200.011719 498.202087, 1195.552979 497.109253, 1197.576660 494.558899, 1199.512451 491.649963, 1197.847534 487.836731, 1200.523315 483.869385, 1197.052124 481.467224, 1195.512085 477.361023, 1193.509399 474.592957, 1194.092407 471.415466, 1193.847412 468.014343, 1195.822510 461.696594, 1193.616333 458.585022, 1199.287109 451.508362, 1198.432373 446.792236, 1196.015625 442.872437, 1197.946045 438.946655, 1196.754883 436.355225, 1199.969360 430.492249, 1204.129150 426.512390, 1204.062866 422.354919, 1208.085571 417.741394, 1210.004028 411.458252, 1212.467651 405.986206, 1210.634399 401.036255, 1209.612793 396.523315, 1208.272705 394.799988, 1207.353149 392.751587, 1206.898438 389.648621, 1211.176514 385.869568, 1215.712646 383.907715, 1216.213257 381.475708, 1218.919189 379.519714, 1222.550537 377.791016, 1223.807739 373.101501, 1226.548706 371.177551, 1228.679688 364.440918, 1234.121582 360.996094, 1235.526855 359.663269, 1238.945557 353.269104, 1242.753296 350.223267, 1245.398438 346.020569, 1248.007812 342.858826, 1252.848999 337.925598, 1256.955566 333.480225, 1260.754272 329.533997, 1262.055298 328.905701, 1264.049316 324.349182, 1267.444824 323.149658, 1269.558594 319.757446, 1272.403442 315.889038, 1275.869263 313.030273, 1279.013550 308.572266, 1279.598022 304.524475, 1280.787720 302.113464, 1281.752319 297.678101, 1282.784424 293.389954, 1280.409912 293.137085, 1283.629639 289.372681, 1285.730591 286.371155, 1284.998901 285.710449, 1286.760620 282.629150, 1290.447754 280.389526, 1292.487183 276.753479, 1295.438477 273.952637, 1298.570435 270.771179, 1299.823364 267.472229, 1303.530640 262.716736, 1306.639282 259.311523, 1311.100342 256.428406, 1313.991211 254.897583, 1317.231445 250.595520, 1322.352539 245.877625, 1325.579468 243.025330, 1330.355103 237.458252, 1331.180176 237.041809, 1331.645996 236.461304, 1334.952637 232.316711, 1335.878906 231.937073, 1339.352417 229.409302, 1341.856079 228.329529, 1342.879272 228.081909, 1347.417480 224.536194, 1349.577393 223.196472, 1350.349243 222.424927, 1356.338379 216.640137, 1360.478149 213.487671, 1362.564087 209.536133, 1363.036743 208.332092, 1365.196777 204.396851, 1365.608032 203.206909, 1368.665161 198.911743, 1368.713135 198.149780, 1368.483643 195.292236, 1370.288330 193.457703, 1369.516357 191.312805, 1368.002075 188.239136, 1371.042358 187.293396, 1370.417847 185.482910, 1370.012329 184.384277, 1373.143799 182.841248, 1374.815552 177.683533, 1375.178589 180.471863, 1378.032837 180.663574, 1378.225098 180.412415, 1379.329224 182.682495, 1382.116455 182.862793, 1382.115845 182.853760, 1385.117920 183.045959, 1385.793457 184.455811, 1388.692261 183.260742, 1392.427368 184.678711, 1393.228271 184.058472, 1396.459351 178.330566, 1396.044067 181.079407, 1399.119141 179.303650, 1401.433594 177.811951, 1403.591064 179.062561, 1404.492554 180.736633, 1407.389282 177.676208, 1410.903442 178.489014, 1411.406982 178.288025, 1414.797852 177.690613, 1416.909546 177.497375, 1421.836914 176.414612, 1426.000488 174.961853, 1429.253052 172.620728, 1433.733276 170.124634, 1441.598145 165.406982, 1448.342529 162.416748, 1452.352051 159.861389, 1459.483032 157.074219, 1466.679199 153.629333, 1470.861328 152.618408, 1474.190308 149.973328, 1479.462280 149.563843, 1486.776611 148.887268, 1494.844482 146.999146, 1503.457275 146.397339, 1509.910278 146.382263, 1513.602417 147.054810, 1520.460938 145.685181, 1522.853638 145.442566, 1531.014282 146.419800, 1540.712280 147.592224, 1550.845947 150.276306, 1565.218018 152.396423, 1572.700317 153.536560, 1588.744507 151.760742, 1605.981079 143.884644, 1615.462036 138.385254, 1623.157959 134.715332, 1629.524414 131.894714, 1633.355225 130.778320, 1638.616699 127.472290, 1642.465820 124.185791, 1640.359009 122.483643, 1644.152344 121.162720, 1647.733765 120.127014, 1651.578613 119.980896, 1650.964600 117.252563, 1655.136230 117.074341, 1659.743286 116.251587, 1663.742432 113.786316, 1667.620850 111.200378, 1672.256104 109.864563, 1675.181885 107.416260, 1675.989380 106.675781, 1679.917236 103.963440, 1680.817871 103.780823, 1683.851074 99.797180, 1685.830322 97.867371, 1686.025757 95.924744, 1690.636353 94.114624, 1691.250854 93.727173, 1693.304199 93.485107, 1694.337158 93.329163, 1698.352173 92.517456, 1700.574829 90.357849, 1703.287109 89.016296, 1706.083984 87.902405, 1709.074097 86.701660, 1712.859741 84.847351, 1713.455200 84.147217, 1716.196533 81.495667, 1718.685913 79.448730, 1720.774902 77.209167, 1721.176270 76.986816, 1722.603516 73.685181, 1725.154785 71.949829, 1724.007324 70.431335, 1726.749023 68.817932, 1724.809937 67.640137, 1722.554565 66.513550, 1724.315674 64.534912, 1723.363159 61.039368, 1725.052368 59.187805, 1722.223633 56.883606, 1721.798706 54.866699, 1723.083374 53.915161, 1725.191162 50.461487, 1727.777588 48.544373, 1724.828613 45.402222, 1724.692383 43.593201, 1727.476440 41.725220, 1730.073730 39.266968, 1732.441650 37.456665, 1729.689697 35.649109, 1732.753784 33.968628, 1731.020630 30.696777, 1733.204590 29.166504, 1732.211670 25.856018, 1734.852783 23.761963, 1736.077759 26.580444, 1735.994873 26.659302, 1739.508423 25.774414, 1738.963379 28.554321, 1740.605957 30.829285, 1740.578857 33.033081Z "/>
    </clipPath>
    <filter id="dropshadow">
      <feGaussianBlur in="SourceAlpha" stdDeviation="2"/>
      <feMerge>
        <feMergeNode/>
        <feMergeNode in="SourceGraphic"/>
      </feMerge>
    </filter>
  </defs>
  <g inkscape:label="rois" inkscape:groupmode="layer" id="rois" transform="translate(0,0)" style="display:inline;" class="display_layer">
    <g inkscape:label="shapes" inkscape:groupmode="layer" id="rois_shapes" transform="translate(0,0)" style="display:inline;" clip-path="url(#edgeclip)">
      <g id="ranta" style="display:inline;" inkscape:label="ranta" inkscape:groupmode="layer"/>
      <g id="ranta" style="display:inline;" inkscape:label="ranta" inkscape:groupmode="layer"/>
      <g id="ranta" style="display:inline;" inkscape:label="ranta" inkscape:groupmode="layer"/>
      <g id="ranta" style="display:inline;" inkscape:label="ranta" inkscape:groupmode="layer"/>
    </g>
    <g inkscape:label="labels" inkscape:groupmode="layer" id="rois_labels" transform="translate(0,0)" style="display:inline;">
    </g>
  </g>
  <svg:g id="sulci" style="display:inline;" inkscape:label="sulci" inkscape:groupmode="layer" class="display_layer">
    <svg:g id="sulci_shapes" style="display:inline;" inkscape:label="shapes" inkscape:groupmode="layer" clip-path="url(#edgeclip)"/>
    <svg:g id="sulci_labels" style="display:inline;" inkscape:label="labels" inkscape:groupmode="layer"/>
  </svg:g>
  <svg:g id="cutouts" style="display:inline;" inkscape:label="cutouts" inkscape:groupmode="layer" class="display_layer">
    <svg:g id="cutouts_shapes" style="display:inline;" inkscape:label="shapes" inkscape:groupmode="layer" clip-path="url(#edgeclip)"/>
    <svg:g id="cutouts_labels" style="display:inline;" inkscape:label="labels" inkscape:groupmode="layer"/>
  </svg:g>
  <svg:g id="display" style="display:inline;" inkscape:label="display" inkscape:groupmode="layer" class="display_layer">
    <svg:g id="display_shapes" style="display:inline;" inkscape:label="shapes" inkscape:groupmode="layer" clip-path="url(#edgeclip)"/>
    <svg:g id="display_labels" style="display:inline;" inkscape:label="labels" inkscape:groupmode="layer"/>
  </svg:g>
</svg>
