<svg xmlns:svg="http://www.w3.org/2000/svg" xmlns="http://www.w3.org/2000/svg" xmlns:xlink="http://www.w3.org/1999/xlink" xmlns:inkscape="http://www.inkscape.org/namespaces/inkscape" width="1960.49633789" height="1024.0" id="svgoverlay" version="1.1">
  <defs id="defs4">
    <clipPath id="edgeclip">
      <path id="clippath" d="M791.467773 1007.794495 L792.914490 1006.638245, 796.729614 1006.388611, 801.924500 1005.431763, 807.599915 999.393188, 819.880188 1001.793823, 837.097168 1006.731140, 844.107849 1010.901855, 849.174561 1012.274048, 853.771606 1008.961304, 858.695435 1002.734619, 863.496948 998.829102, 865.891113 994.205505, 867.646851 987.572998, 865.722778 981.928162, 865.091370 977.019714, 863.741882 971.566895, 863.034973 967.516418, 859.000610 963.245850, 849.716125 957.614502, 846.374817 955.934021, 851.033752 955.074524, 853.413208 954.311523, 853.742310 952.230103, 850.712769 951.340820, 850.185059 949.843750, 850.353760 948.076477, 853.084045 948.349609, 854.413147 946.257019, 853.164795 944.440613, 853.554077 942.595093, 851.514282 941.058289, 851.024048 939.337219, 848.321838 938.131897, 847.504028 936.372742, 846.557983 934.595886, 844.537842 933.629028, 843.492920 932.094177, 841.979553 929.875061, 839.320618 926.604919, 838.502380 922.664612, 840.409729 921.638184, 841.160645 919.127747, 840.123413 918.288696, 841.096191 916.258240, 836.681091 914.967041, 836.584106 912.880798, 835.779724 911.739075, 834.504150 910.145630, 834.684387 908.264954, 833.854004 906.681396, 834.791382 905.315247, 835.090515 904.369507, 835.955383 903.112427, 835.183716 901.740112, 837.116455 900.779541, 836.202515 900.354980, 833.494507 901.426147, 833.646240 899.886108, 833.133850 899.388184, 834.468994 896.574036, 833.452637 895.522339, 834.228577 893.344849, 833.175049 892.431946, 830.975342 891.802246, 830.173279 886.143555, 828.455322 882.207703, 827.323975 880.758789, 825.012268 879.161194, 821.964294 878.454102, 814.711426 879.705444, 813.620239 887.169189, 814.991211 890.269531, 817.719421 891.268738, 821.227051 891.723572, 824.850159 891.583008, 828.720032 890.523804, 833.459106 889.534546, 837.219727 889.685913, 841.058533 890.160828, 845.111572 891.284180, 847.580627 892.021423, 849.386963 891.845825, 850.859680 892.281982, 850.722961 890.956787, 852.532043 890.596802, 854.299744 889.914856, 855.011658 891.068665, 855.896362 890.713318, 856.939819 889.866089, 858.647583 889.430786, 860.206177 888.850098, 861.197876 889.626526, 861.827454 889.204468, 862.828491 888.614197, 863.450195 886.905884, 866.228027 886.230469, 868.764709 885.249084, 870.590088 884.287598, 871.497253 883.322205, 873.011047 882.192139, 875.111023 880.954468, 877.523865 879.825684, 878.393921 877.777588, 881.313354 876.653931, 882.294617 873.935913, 884.535767 872.134460, 886.240417 869.828552, 888.020996 867.435303, 889.524414 866.947021, 890.618164 865.553894, 890.892273 863.848328, 892.383240 862.410950, 894.154114 862.066650, 895.689758 860.258179, 898.009949 858.522339, 900.245789 856.487488, 902.711609 854.316650, 903.003784 851.743042, 905.245178 849.371460, 907.091187 847.196167, 907.373962 844.305359, 907.798767 840.737122, 907.990906 837.480347, 909.980591 835.011841, 911.545288 832.309448, 912.741150 828.706909, 914.287598 824.539307, 916.572083 820.589233, 918.933044 818.276611, 920.088623 817.949707, 921.060303 816.016052, 921.522278 813.940735, 922.347961 809.748047, 923.589294 806.755676, 924.287476 804.688538, 924.388794 802.668335, 924.549561 800.130859, 923.750000 798.072021, 924.101929 795.869812, 923.759460 793.193054, 923.824829 791.895325, 922.742249 790.745361, 922.644104 787.735657, 921.690735 784.994751, 920.664307 781.294189, 921.692688 777.662415, 921.611206 773.964233, 921.316711 770.337280, 921.709045 768.514282, 920.768799 767.013550, 919.832825 763.415039, 920.958069 758.934753, 921.630798 754.386108, 920.529175 751.241516, 919.317505 749.142517, 918.911621 746.043579, 918.023376 743.486572, 917.406677 741.822266, 916.413452 741.346680, 915.012878 739.859863, 914.484009 736.655396, 913.083801 734.934082, 912.432800 731.520752, 911.090454 728.912476, 910.197083 726.157471, 909.768860 723.646484, 909.068359 721.254883, 909.151428 715.150513, 909.273987 709.541382, 908.515503 706.223633, 908.713684 700.931946, 908.821655 697.510986, 908.668945 694.985718, 908.730591 692.340088, 908.141296 688.555542, 908.330139 687.110535, 907.479126 685.965820, 906.407349 682.574097, 906.747314 680.394104, 905.207092 678.158142, 903.028748 673.742981, 901.993408 668.714600, 900.587219 666.418335, 900.875305 661.090454, 902.036316 657.262695, 904.728882 652.985474, 909.420288 647.379028, 913.363159 642.560303, 916.415100 638.180420, 918.310669 635.898682, 920.631348 632.864990, 923.075500 630.223022, 925.690918 626.876404, 928.213135 623.612061, 928.465454 621.723694, 930.902283 617.885315, 933.033691 614.146484, 935.292908 611.125122, 936.943665 609.054688, 937.718445 607.669922, 939.545349 604.859619, 940.802917 601.948608, 941.737122 598.719238, 942.925537 596.799927, 943.667175 595.645264, 943.882263 594.887390, 943.631287 594.328491, 943.949341 592.674255, 944.123657 590.513550, 944.401306 587.529541, 945.337646 584.618164, 944.232727 582.533569, 946.860107 578.115845, 949.125671 574.867554, 950.570923 572.289307, 951.971985 569.031372, 952.287292 565.198120, 953.691223 560.855103, 955.493225 557.694092, 956.322449 557.028015, 956.388489 554.862793, 956.713135 550.956543, 956.292603 548.750366, 957.123840 544.670532, 957.050354 541.877014, 957.796875 538.807922, 958.066650 534.896790, 958.512390 533.075439, 958.189758 530.807373, 958.043701 525.894836, 958.686340 524.624512, 958.462341 522.286194, 958.629150 519.474731, 958.358093 515.732178, 958.100708 512.009521, 957.237305 508.115906, 957.709045 506.111267, 957.087708 502.979797, 956.612610 499.825562, 956.507446 496.352722, 956.240173 492.735413, 956.318909 489.779297, 955.972290 486.206116, 955.040283 480.220825, 955.281494 476.604797, 954.809387 474.038757, 954.755859 472.036377, 954.528259 468.771301, 954.061462 464.591553, 953.548218 460.284729, 952.578918 456.685730, 951.472717 452.745850, 951.661499 451.554749, 950.699890 449.967773, 949.226257 447.312439, 947.269714 444.788025, 945.498657 441.728088, 945.411316 440.078125, 943.893616 437.149475, 942.859314 434.497009, 941.577820 431.861267, 942.362061 431.265869, 941.308350 430.058655, 940.291687 428.307312, 939.954468 426.351807, 939.118530 424.107971, 937.762939 422.345337, 937.604858 421.303711, 937.544434 420.612915, 936.797852 420.911682, 935.582642 419.578186, 933.864502 417.583679, 933.586243 415.324951, 932.138367 412.986023, 932.025513 410.710571, 932.391968 408.995972, 931.314392 408.797363, 930.038025 406.974182, 928.019836 405.419556, 927.884033 402.824219, 927.213501 401.392334, 927.536499 399.993225, 925.915955 400.706360, 925.324097 397.855591, 925.453430 395.757874, 926.204529 394.043640, 925.729248 392.895325, 926.007629 391.396362, 925.309998 390.391724, 925.094971 387.973145, 924.683411 385.836731, 925.132935 384.359070, 924.842896 382.655945, 925.471191 379.997070, 926.117554 377.631226, 925.757141 374.826782, 924.890869 370.919006, 924.039124 367.748047, 923.655579 365.208313, 922.503052 361.818665, 922.619446 358.269836, 920.579895 355.443665, 918.242920 352.950256, 915.906494 350.621582, 915.865295 348.102417, 914.853638 346.499329, 914.823242 344.407043, 913.732849 342.905762, 912.587646 341.249146, 910.863281 339.322266, 909.837097 336.974915, 911.217224 334.638306, 910.922119 333.045227, 911.492249 332.234192, 911.168457 331.271057, 911.689514 329.674072, 908.603760 330.672607, 906.522156 330.041504, 903.918457 330.184814, 901.643127 330.799072, 899.695312 330.613220, 898.354980 330.322998, 896.485046 330.373535, 894.556213 329.175415, 892.819214 329.215271, 891.122375 327.318115, 889.145447 325.201050, 888.642456 322.907715, 887.742004 320.816101, 885.164856 319.091797, 882.003235 315.479431, 878.539795 311.491882, 876.117249 308.336426, 874.187805 306.928467, 872.485535 305.036255, 871.876709 302.344543, 870.075989 299.954590, 869.302124 297.287170, 867.584229 294.244934, 866.389954 292.167908, 865.952393 288.946167, 865.924500 285.456543, 866.043274 281.949097, 865.129333 279.862122, 863.636292 278.137085, 864.680420 275.569336, 865.369873 273.871521, 864.263123 272.076172, 863.471741 270.300659, 864.003296 267.591248, 862.013489 268.254150, 860.653625 267.389221, 859.303528 268.268372, 857.385010 268.626587, 855.854614 267.411133, 854.624878 267.861877, 853.066162 266.711243, 852.969238 265.298523, 851.356567 265.948669, 847.987122 265.834839, 844.435425 265.085632, 841.312195 264.618042, 839.269409 263.959167, 836.543823 263.204956, 831.919983 260.991150, 829.638123 258.448853, 827.219849 256.155823, 826.264465 254.589111, 824.852905 253.033875, 822.504028 251.197693, 817.839478 248.389526, 812.353943 246.391052, 808.558655 245.143372, 805.655945 244.565430, 803.712524 242.515076, 801.542603 242.725159, 799.775635 242.967590, 796.686646 242.197144, 793.771729 240.550903, 791.267639 238.696655, 791.557983 237.606506, 790.816406 237.315125, 789.378296 236.879578, 786.692566 236.665344, 783.887634 236.781982, 780.398560 236.415833, 776.540771 236.086121, 772.311096 236.178589, 770.418091 234.339294, 768.191040 235.342896, 764.488953 235.675903, 762.708069 234.232666, 760.130432 234.099731, 757.790344 235.620056, 754.659119 234.848206, 752.613831 233.291992, 750.450256 233.968079, 747.174866 231.714539, 744.800781 229.906616, 742.825073 228.540894, 741.095093 227.547852, 739.808716 226.989563, 738.283630 226.788696, 736.497742 226.476013, 734.849182 226.380127, 733.034668 226.179810, 731.202759 226.312256, 730.497559 225.440979, 729.381714 226.082275, 726.675781 225.765564, 725.321411 224.868347, 724.049072 225.827209, 721.304565 225.532715, 718.773132 225.342712, 716.317139 224.994019, 713.426331 224.975769, 710.821899 223.668274, 708.312927 223.975342, 707.889282 222.372986, 706.845703 222.803467, 704.909973 222.705017, 702.797668 221.925110, 700.898254 221.672363, 700.491638 220.410034, 699.438599 221.188477, 697.892639 220.732605, 697.465515 219.502625, 696.012878 220.142273, 694.064514 218.881836, 691.657349 217.889832, 689.681641 215.919373, 687.090759 216.224121, 684.540771 216.580933, 682.248962 216.679260, 679.501526 215.778259, 677.097229 214.469666, 674.614685 215.182312, 672.835815 214.152527, 671.414856 213.661621, 670.217285 214.955078, 667.217285 213.380066, 666.085449 211.691528, 664.507690 212.010986, 662.035767 211.074219, 660.161682 210.825806, 657.859009 210.786926, 655.228333 211.128784, 651.325562 210.990356, 647.719971 210.520325, 644.519531 211.166565, 641.142151 210.822693, 638.988708 210.451355, 637.235107 210.716064, 635.625000 211.501465, 634.763794 210.511108, 633.571045 211.046448, 631.899109 210.949280, 629.932129 211.807800, 627.515869 212.907349, 625.743164 213.720520, 624.582458 214.703369, 622.212280 215.809143, 618.854675 217.399597, 615.564819 218.828552, 612.611450 220.231323, 609.428467 220.069763, 606.842529 220.030090, 604.367859 220.340332, 601.234131 221.144287, 596.906494 221.884583, 590.693970 223.201660, 584.604126 224.510986, 578.204041 225.492188, 573.209595 225.486816, 570.019470 225.914734, 563.957031 225.203796, 559.812805 223.791870, 555.412109 220.963013, 550.701660 215.627808, 549.093567 212.902771, 546.503418 211.013672, 545.329468 206.632263, 544.249451 203.162292, 542.313232 199.096985, 540.824646 194.763062, 538.955933 190.336731, 538.474121 186.512390, 537.978943 182.897827, 536.473511 178.669250, 535.955078 175.044250, 534.997498 172.174377, 534.156555 169.470154, 533.731445 166.955811, 533.414734 164.625366, 533.180908 162.306763, 532.769104 160.575317, 532.882812 158.991760, 532.750977 156.814514, 533.000122 154.937378, 532.468811 153.156372, 532.009705 151.218445, 531.747070 149.422180, 531.543884 148.135437, 531.170044 146.865234, 531.069580 145.424683, 531.273926 143.651855, 531.357544 141.670654, 529.300598 140.683960, 530.729309 139.055115, 530.000305 137.553711, 530.551025 135.906067, 531.657898 134.451782, 530.703369 132.653137, 529.437073 130.734863, 527.767578 128.903809, 525.725342 127.473328, 526.666321 125.637085, 527.761047 123.861755, 528.347168 122.810425, 526.411804 122.483765, 527.333069 121.315247, 525.509583 121.252686, 524.690430 120.158875, 526.134155 119.422119, 524.558411 119.083496, 524.470581 118.085938, 523.970520 116.852234, 523.598511 115.537415, 525.370789 115.325623, 523.339355 114.371704, 524.184753 112.909424, 524.927307 111.391113, 526.136169 110.409790, 526.042542 109.272644, 526.544373 107.669434, 526.737488 106.288147, 528.153137 106.165161, 527.066162 105.152283, 527.798279 103.753479, 528.518982 101.960571, 529.577332 100.758118, 529.213806 99.428711, 529.667786 98.297119, 529.189758 97.230835, 528.488159 95.835938, 529.303528 95.309204, 529.709290 95.117310, 529.742554 94.670227, 528.714050 93.511230, 530.388977 92.735962, 530.726013 91.193176, 532.596436 89.631409, 532.416138 88.195129, 531.775146 86.585632, 533.196838 84.674377, 533.142761 82.241760, 534.353027 80.169250, 535.144775 79.012146, 534.868835 77.158875, 533.695251 75.370972, 532.575500 72.871033, 532.189819 70.299500, 529.613220 68.748291, 528.147766 65.492188, 530.606201 64.535828, 531.424316 62.561340, 531.934509 60.255188, 532.503601 57.956421, 532.764587 56.830322, 532.712097 56.256042, 532.373535 55.026978, 530.372437 54.200439, 530.388184 51.456360, 527.718567 50.363220, 527.256836 47.817261, 528.095337 46.716492, 526.145447 45.819824, 525.714600 43.183167, 525.012695 41.475281, 524.199280 40.575439, 523.502625 38.500732, 523.179688 35.588867, 522.725159 32.955383, 522.110535 30.158325, 520.754883 27.056763, 520.620178 24.372681, 519.291687 22.599548, 517.446289 22.183899, 516.308960 20.581909, 516.059082 18.722839, 515.139709 15.908081, 514.614868 14.419922, 514.199341 13.820679, 513.464417 12.630249, 511.214752 11.478577, 510.864471 9.160767, 510.592102 7.825562, 510.549927 6.917542, 510.877350 5.790344, 510.589478 4.455627, 510.146881 3.195129, 509.330627 1.946289, 510.053741 0.000000, 507.905121 0.919312, 505.458618 1.973877, 502.653687 3.782837, 501.072235 5.985901, 499.528229 8.119568, 497.404510 8.894409, 496.215698 10.401733, 494.048340 10.927063, 491.454773 10.713684, 489.801758 12.205750, 487.861145 13.555176, 485.984558 14.012756, 484.374451 14.161194, 482.892761 13.777893, 481.541931 15.533997, 479.476990 15.826294, 476.675903 14.783752, 476.513977 17.486145, 474.887390 17.657654, 472.322083 16.049316, 470.313751 15.906738, 468.500580 15.716614, 467.826019 18.748352, 465.586517 16.512695, 464.487518 19.195801, 462.870026 20.037598, 460.729706 16.862122, 458.409302 18.499268, 458.039612 19.669312, 455.827148 20.304443, 453.497955 20.274231, 451.177643 20.212463, 449.009705 19.478149, 446.666748 18.918335, 444.424835 19.413086, 441.668488 19.668457, 438.551880 16.292358, 435.712616 18.865173, 432.992004 18.647583, 431.595184 18.776917, 430.696442 18.546692, 429.073914 18.064270, 426.521576 14.465454, 423.314178 15.586609, 421.165924 15.698181, 418.952026 15.375977, 416.150879 15.495850, 412.957947 12.702271, 413.129059 15.416992, 412.786713 16.206482, 412.567169 16.845703, 411.685028 16.902405, 413.225159 17.351624, 412.572479 17.324829, 412.682037 18.004395, 412.196045 19.114868, 411.710175 20.520203, 411.271942 22.489624, 410.688080 24.459045, 410.145050 26.363342, 409.416748 28.946167, 408.488831 31.931213, 405.964294 34.045837, 404.674103 36.229309, 403.986603 38.038635, 404.825562 39.339783, 404.596619 41.123779, 403.853455 43.361023, 402.934265 45.597046, 404.427856 47.384583, 404.654541 50.065918, 405.100281 52.705017, 407.063751 54.288452, 407.627716 56.096680, 408.942963 57.113586, 409.536285 58.508362, 411.001282 59.920105, 411.137329 61.247375, 409.853088 62.138550, 408.488068 63.257446, 409.498444 65.253052, 406.874084 65.609192, 405.933105 67.023865, 406.782715 69.225098, 405.058258 70.520996, 404.095001 72.657410, 403.760040 74.404236, 403.515594 76.096497, 403.261444 78.228638, 404.971039 80.262512, 403.793091 82.318054, 402.660583 84.246704, 401.679901 85.966370, 400.181030 86.100098, 400.711914 87.174866, 400.644440 88.956360, 399.993805 91.209839, 400.205780 93.470276, 400.819336 95.481079, 399.431519 96.785461, 397.721436 97.777649, 397.089874 99.714233, 395.564606 101.308960, 392.668945 101.919006, 390.214935 103.732971, 387.398224 105.424255, 385.108521 107.812378, 383.598267 111.002136, 381.759216 112.106018, 382.387543 114.480103, 380.712341 116.167908, 380.666534 118.645630, 380.230286 120.573792, 379.132843 123.645996, 378.106720 127.397400, 376.333038 130.999817, 373.529510 135.020996, 371.071075 138.452881, 366.750946 141.900940, 361.505920 144.564880, 356.623444 145.938965, 351.817383 146.065613, 345.731476 145.351013, 340.541443 143.552429, 339.173096 141.793396, 337.239746 140.606262, 335.896393 139.952026, 334.379791 139.037415, 332.004791 137.537109, 329.552917 137.204651, 326.845062 134.923706, 323.827026 132.896118, 320.201752 130.259521, 316.651794 127.880249, 312.525085 125.287109, 311.777679 122.803162, 308.202972 121.049072, 305.577118 118.906433, 304.150757 116.935730, 301.513397 115.528687, 298.783081 113.274719, 294.938049 110.774780, 291.410034 109.342224, 288.812927 108.010559, 286.223846 108.106567, 284.769440 106.444946, 283.390137 104.799438, 280.618713 104.767151, 280.345551 102.629089, 278.488647 103.296204, 275.708038 102.424011, 272.832153 101.181946, 269.568878 103.427551, 266.067017 104.157104, 263.175171 105.188110, 261.376373 103.687805, 259.533875 104.722961, 257.149780 103.502869, 255.301376 104.447937, 252.696213 104.713806, 249.580490 106.218323, 246.452362 107.311829, 243.263901 107.044434, 242.001251 107.609375, 240.911758 107.700073, 239.252304 107.842041, 237.705673 108.372620, 236.108917 107.954651, 234.827499 105.639282, 232.913406 106.061218, 230.611084 104.967773, 227.817368 105.247925, 224.937271 104.819153, 221.955231 106.386536, 219.310684 106.203979, 217.114594 107.383362, 214.807526 109.330322, 211.810165 109.450378, 208.697510 111.955261, 205.030838 113.360168, 202.417389 115.057861, 199.963089 115.391541, 197.096176 114.212524, 193.396301 113.372437, 190.005112 111.830811, 186.929321 110.722412, 184.169952 109.624390, 182.838394 107.847717, 181.590927 106.915039, 180.279999 106.422974, 179.121750 106.110962, 178.451675 105.746338, 178.447693 105.478882, 177.462830 106.283203, 176.360306 106.781189, 174.650940 108.636108, 172.805923 110.716309, 171.712753 112.744995, 170.330917 113.998108, 168.865601 113.703430, 167.738251 116.221252, 165.390869 116.898560, 163.571671 117.809753, 162.293777 119.712585, 160.430801 120.480408, 158.003174 122.254272, 156.187500 123.467529, 153.985596 124.705872, 152.160889 126.840515, 150.157120 127.768494, 148.626434 128.592773, 146.742996 129.633118, 145.085693 131.500610, 142.520462 132.827637, 140.269348 134.803650, 139.159012 136.413391, 137.863022 138.318970, 135.404266 140.466064, 133.957886 142.625427, 132.417007 143.834106, 131.277008 143.875793, 129.623215 144.560974, 127.771446 144.345886, 125.828003 145.555359, 121.279099 142.284485, 118.561646 142.011169, 115.614479 142.553589, 110.763268 144.591797, 107.362183 144.238953, 104.481468 143.977356, 101.641617 143.803894, 99.186920 141.425110, 95.430870 143.529968, 91.910980 142.780823, 89.302376 139.105774, 84.660492 141.012634, 85.074783 137.052551, 80.528709 139.824646, 77.797310 138.093323, 76.734032 135.654419, 75.591415 134.979370, 74.595665 134.141174, 74.511124 132.278625, 73.189690 130.486328, 72.092987 128.225342, 71.203705 126.336670, 70.166718 124.783813, 69.371941 123.890869, 68.453682 123.040955, 68.252243 120.686462, 65.817322 120.851746, 63.390072 119.159180, 61.483650 119.960999, 59.521271 120.950439, 57.055618 119.546143, 55.179779 121.033997, 52.315239 120.673035, 50.185078 120.944458, 48.499557 119.570374, 46.949326 121.556335, 43.309326 120.035400, 40.418880 119.723511, 37.903400 120.954102, 36.157711 121.725525, 34.950562 122.652771, 33.308273 123.856018, 31.099701 125.118347, 28.496382 125.624146, 26.308504 125.282654, 24.557909 126.757996, 25.885246 129.382263, 24.503105 130.777405, 25.468504 133.188599, 24.982317 135.264893, 23.934904 137.012146, 23.061178 138.618103, 20.901199 138.068726, 19.600000 138.811279, 18.358282 138.389343, 18.064791 138.714478, 18.768278 139.731018, 19.391668 141.519043, 17.266949 142.763184, 14.089220 143.685669, 11.313901 145.425354, 11.498320 148.863403, 10.142853 150.841675, 9.288980 152.213318, 9.344626 154.576721, 7.363395 155.253662, 7.321851 156.781311, 7.198599 160.343689, 8.243023 164.009644, 5.544966 164.322083, 6.451958 166.044067, 5.714668 168.156250, 4.962124 170.320312, 6.799562 172.173523, 5.172220 174.065247, 6.403745 175.882446, 4.803000 176.528748, 5.212921 177.874329, 6.013906 180.462708, 6.736786 182.675415, 8.843186 184.795288, 7.182043 185.514954, 6.883646 186.891541, 8.216962 189.084412, 7.772779 191.699097, 7.293414 194.932312, 5.987539 197.860291, 5.073496 200.438782, 3.758577 202.265442, 3.591328 203.883850, 3.047271 205.960083, 2.780684 208.479797, 1.769910 210.432312, 0.832795 212.014221, 1.434722 213.829224, 1.899830 217.176086, 0.539611 219.140076, 0.000000 221.293091, 0.786422 223.156921, 0.322234 225.065125, 2.590747 225.519226, 2.682037 227.981567, 4.411705 228.698853, 4.274120 230.693237, 4.516485 231.819275, 6.180082 233.294678, 7.237997 234.898315, 8.696020 236.316833, 9.938429 239.011475, 12.885136 239.905212, 12.817454 242.481201, 13.111941 245.293762, 14.658571 247.603577, 13.808914 249.823792, 12.176436 251.019714, 13.061506 251.853760, 14.943937 251.134521, 16.962038 251.923218, 19.014553 252.905396, 19.781967 255.287842, 21.233091 256.638794, 23.088924 257.089600, 22.801413 259.292908, 25.575890 258.282654, 28.398117 258.510620, 30.263762 257.640198, 32.215256 258.286133, 35.184879 258.776367, 38.546490 258.829041, 41.719849 258.683777, 42.544518 261.129883, 45.153660 261.464600, 46.888851 262.398682, 49.050053 260.440735, 52.049957 260.954529, 54.219284 262.055786, 56.461430 262.564453, 59.129440 264.498230, 60.839489 265.378357, 62.454105 265.618469, 64.280121 265.262695, 65.902634 263.676331, 68.253014 264.662903, 70.566673 263.241150, 73.893639 263.315491, 76.721382 263.369568, 78.877525 263.138977, 81.300873 263.407471, 84.592499 264.908875, 86.732246 264.937927, 89.983635 266.211914, 92.842575 267.737061, 94.671738 268.227783, 96.697350 269.294556, 98.464958 269.584229, 100.107246 269.564636, 102.072227 272.135559, 103.929596 274.935364, 104.917450 276.918152, 107.088623 276.347412, 110.575401 278.105774, 112.658730 279.548584, 114.655289 282.284180, 114.272812 287.786011, 113.224403 292.519714, 112.276016 294.309875, 111.950180 296.167542, 110.458740 300.316956, 108.232841 305.544250, 107.185661 310.965393, 104.834747 317.526245, 102.606476 324.236084, 100.385941 326.028442, 97.875069 331.479431, 94.927132 335.832092, 92.719940 339.859619, 89.957802 344.524414, 87.817986 348.386902, 86.650536 351.537231, 83.538116 355.209106, 81.830368 358.292725, 80.639694 359.893066, 79.450790 363.111084, 78.540886 366.147400, 77.259689 368.354309, 75.705933 371.052490, 74.173409 373.927368, 73.191071 374.877502, 74.065331 376.899048, 71.515976 379.476746, 70.967468 382.945312, 70.704102 386.630371, 68.809334 387.745361, 69.390869 389.839172, 68.224190 394.699646, 65.910378 395.052979, 66.462791 396.404724, 66.996956 398.248413, 67.740913 400.557617, 68.500359 401.923889, 69.395164 404.442078, 69.755028 407.645752, 71.363594 410.668884, 71.586571 413.182678, 72.179604 415.985718, 72.455467 419.264587, 73.590103 422.525024, 73.853622 427.082458, 74.869072 431.767456, 76.072472 434.598816, 76.313454 439.582214, 75.849876 442.198364, 75.396576 443.509705, 76.380676 444.356995, 76.178551 450.038818, 76.043266 452.317566, 75.973282 454.017944, 76.789604 454.743469, 76.017738 460.446350, 75.944771 462.504578, 76.469971 464.183716, 76.568085 466.442200, 76.953476 469.052368, 78.574532 471.587097, 80.556686 475.319641, 79.286530 477.855957, 79.402115 479.751099, 80.570946 480.501404, 82.449844 481.815613, 83.032845 484.577271, 83.557587 488.102722, 83.595139 493.039856, 86.563004 495.573669, 86.490646 498.505676, 87.396492 501.760864, 89.464638 504.518616, 91.922630 506.985229, 93.987259 510.715210, 97.223396 515.595093, 97.199478 518.307861, 99.122147 519.930847, 102.812965 524.049683, 103.221359 525.892090, 105.193771 527.489075, 108.519821 531.146362, 110.364922 535.653931, 111.943283 540.401245, 112.156212 542.132141, 113.006714 543.526428, 114.425499 547.157043, 115.118179 550.029297, 116.449883 553.376587, 115.771614 555.584473, 115.693962 557.137939, 117.530563 557.154358, 116.975311 559.746826, 118.428352 561.795044, 119.731468 564.583801, 122.155884 568.663208, 122.989830 570.558716, 124.665001 571.348999, 125.470360 574.082031, 127.534523 576.063721, 130.775101 577.657959, 131.819839 579.277710, 133.931366 579.536926, 135.049835 582.624817, 136.740189 584.054199, 138.922623 585.849854, 141.160782 588.800537, 142.724121 590.571716, 144.506531 592.336426, 145.334030 595.039185, 147.311584 597.438477, 149.165421 600.053223, 151.799332 600.384766, 154.437668 602.886047, 156.099731 604.319458, 157.735123 603.942688, 159.804276 606.111206, 162.869400 607.680786, 165.652390 609.990173, 167.849396 611.490784, 170.524536 612.860840, 170.976608 614.822021, 173.523438 614.649475, 174.916306 616.802734, 176.983459 618.039307, 179.551758 616.909912, 181.780182 617.602905, 184.677597 616.834473, 188.609787 617.365967, 191.264923 616.357788, 194.350662 617.471680, 197.276672 616.834351, 198.031830 619.370239, 199.310486 621.104065, 200.234955 623.331299, 201.865372 622.200134, 202.751358 624.164917, 203.745041 626.251282, 204.806091 628.387329, 206.593796 628.179138, 207.206909 625.356812, 209.165604 625.351318, 209.880051 621.737793, 210.057419 618.603149, 211.066040 618.316345, 212.325546 619.053223, 213.522964 616.614380, 215.919098 614.616089, 219.219849 615.907776, 221.501617 612.850098, 223.610016 610.504333, 227.077942 611.612488, 229.217300 609.223145, 232.220490 610.011230, 233.737457 608.574463, 235.711029 608.314941, 237.301346 607.109009, 241.115341 608.456787, 243.331284 607.316589, 246.659698 609.177368, 250.290039 608.368042, 253.599915 608.476196, 256.296051 608.360596, 258.579590 609.365173, 261.368011 610.685547, 263.305023 611.582825, 264.465942 612.403320, 266.473999 611.965698, 268.214478 611.845825, 268.989502 611.038208, 270.678009 610.716797, 273.544769 610.016113, 276.685913 609.434448, 280.625549 610.007446, 283.268097 610.972046, 286.057312 611.456177, 288.820038 611.584717, 291.698608 611.933411, 294.062561 611.697449, 295.596619 612.670776, 297.892883 612.949463, 300.102539 613.472656, 299.953064 614.784546, 301.556183 614.720337, 302.002594 616.215576, 304.031860 617.628174, 306.447174 619.835083, 307.885895 624.202026, 307.149292 624.911865, 307.675568 625.571716, 308.840698 627.176514, 308.960510 630.658691, 308.764526 633.427612, 308.099121 636.381531, 308.877655 640.147827, 307.756866 644.155029, 306.727783 648.042236, 305.433472 649.386230, 305.293304 651.309937, 303.896973 653.211670, 302.823120 655.486572, 300.949585 658.207397, 300.796051 661.562256, 299.564606 665.495117, 297.831635 669.235352, 295.461182 673.086243, 293.457031 676.127075, 293.192047 679.394531, 292.154144 682.029541, 291.362122 684.322021, 292.422272 686.824402, 291.057526 690.100220, 291.441925 693.821167, 292.196533 698.322754, 293.797821 703.816284, 294.349518 707.821777, 295.549103 711.411865, 297.275452 716.429382, 298.862640 720.910278, 300.285553 725.074463, 299.951538 727.814453, 298.851379 728.254150, 299.565369 730.113159, 300.745911 732.008789, 300.912415 733.299072, 300.746674 734.442139, 301.236389 736.792297, 302.484558 739.138794, 302.718964 741.059570, 302.790009 741.687744, 303.464508 741.478821, 305.584015 742.845459, 308.091217 744.412476, 308.962585 747.310547, 312.123596 748.681152, 313.797699 751.115112, 312.751892 753.039673, 314.645264 754.454590, 317.165894 754.280640, 320.080536 755.462646, 321.339905 757.778076, 320.075531 759.371948, 321.975861 760.505554, 325.160126 761.332764, 326.187927 763.533691, 327.417969 765.341736, 329.557190 765.460938, 330.366547 766.671509, 331.686646 765.727905, 333.928101 766.349487, 334.793182 767.566406, 336.230499 766.561279, 339.199768 767.154053, 339.690308 768.850403, 342.789917 769.406067, 347.322540 772.380310, 351.960693 774.824341, 355.771545 777.430847, 358.272095 779.967346, 362.275757 782.473572, 363.329041 785.597412, 365.533569 785.789551, 368.700958 788.425171, 372.638824 791.374268, 376.219177 793.892212, 379.724670 796.614014, 383.546814 798.911255, 384.757965 801.157104, 387.164886 802.948059, 389.598450 804.848511, 391.507019 806.587402, 393.783020 808.561951, 393.980438 810.965088, 396.524841 810.211548, 400.378082 809.885010, 401.214874 812.111389, 402.885864 812.415039, 404.948975 812.664490, 407.377563 813.431396, 409.859314 812.429871, 413.290009 813.916016, 416.134796 814.395935, 417.358551 815.788574, 418.336853 814.956726, 420.588837 815.882690, 422.921417 816.049500, 423.977478 817.694702, 425.051910 816.608521, 427.199341 816.822510, 428.697021 818.682434, 429.872589 817.055359, 431.363922 818.956787, 432.176727 818.085022, 433.731476 818.061890, 434.577118 817.014282, 436.440063 816.229980, 439.373260 816.339539, 442.898285 817.871765, 446.196930 819.469421, 447.493073 821.070557, 448.856293 820.993835, 452.505127 822.760620, 455.701965 823.426392, 458.541077 824.182739, 461.669189 825.518616, 464.448883 825.553528, 467.626007 826.791077, 471.535736 828.173767, 474.609222 827.358093, 478.413239 827.494263, 481.202240 825.963684, 483.812469 825.419312, 486.154816 824.690857, 488.050781 823.846252, 490.082184 822.433777, 493.311340 821.199707, 496.413574 820.292236, 499.734009 819.546753, 502.425415 819.477417, 505.020630 819.040161, 507.439545 818.450378, 510.611145 818.201660, 514.273132 818.036621, 518.008057 818.441162, 520.598022 817.444153, 524.003906 817.556274, 526.183350 817.671265, 527.979797 816.762451, 529.151184 816.486328, 530.699463 815.117554, 536.154175 812.281311, 539.843323 811.849304, 543.818726 810.353149, 547.977539 809.310669, 551.847290 809.036377, 555.842651 808.701721, 560.206604 808.762329, 562.723694 806.523499, 566.311951 806.507751, 569.755737 806.552002, 573.471008 806.292236, 577.331970 806.434937, 581.006042 805.706787, 584.405945 807.369873, 586.403809 807.822754, 586.736755 806.899841, 589.116333 806.865540, 592.065979 806.632385, 595.355896 806.199585, 596.958435 804.508972, 600.172729 803.765747, 601.978210 804.873474, 602.978088 803.541321, 605.724854 801.106384, 608.558960 797.808838, 612.394409 796.056763, 616.463318 794.491333, 619.696106 793.118225, 623.918213 789.974243, 626.723816 786.995178, 631.387817 786.552246, 636.211060 785.980652, 644.151123 786.199036, 651.165894 787.922119, 654.314087 789.788940, 653.927551 791.734985, 653.059448 793.551941, 653.428101 794.899353, 655.392273 795.837036, 657.442017 797.045288, 655.858887 798.053711, 655.014160 799.003052, 656.590881 799.385620, 656.470032 801.035645, 655.094543 803.013306, 653.064697 804.494324, 651.471497 806.098145, 650.071655 807.592163, 650.525085 809.539856, 648.969666 810.520142, 648.184937 812.188232, 647.507812 813.949036, 649.107422 816.498779, 650.734192 819.013184, 649.410400 820.306152, 650.066895 822.204102, 648.536987 823.364197, 646.393860 824.237488, 645.124023 825.095337, 645.447632 826.795898, 645.709167 828.946533, 643.342957 829.438599, 641.178528 830.039917, 639.319275 830.340820, 638.269287 832.204712, 636.845886 832.453735, 635.308960 833.531372, 633.253418 834.472778, 631.179443 834.800781, 629.815735 835.965454, 627.876709 836.450134, 626.278259 837.606628, 625.476135 838.732300, 625.785339 840.415771, 625.603088 841.580444, 627.106323 842.742554, 626.590637 843.856140, 628.294861 844.997559, 630.434143 846.988342, 629.882812 848.709595, 629.779053 849.920532, 630.403687 851.297485, 629.995056 852.689880, 629.642029 854.268799, 630.217163 856.181396, 629.226501 856.909180, 627.510315 857.239136, 627.775635 859.057678, 625.549133 859.234070, 625.632690 862.119385, 622.513550 862.310791, 619.392456 862.800537, 616.588562 863.555603, 616.335571 866.121765, 616.359192 868.746155, 614.084229 870.199463, 614.344421 873.196106, 611.861633 874.889587, 610.184814 875.849548, 611.394531 877.243042, 611.428284 879.564819, 613.188232 881.765869, 611.599670 883.165894, 612.849976 884.539246, 611.520630 887.700073, 610.962280 890.501465, 609.540649 891.585205, 608.664978 892.275879, 610.439697 893.158386, 608.984314 895.674622, 608.844177 897.482971, 607.561646 898.407837, 608.947144 899.188904, 608.354614 901.304871, 608.226685 903.709351, 608.127319 906.345520, 606.348083 907.631531, 607.913269 908.777710, 608.193176 911.579651, 608.097717 914.766052, 608.382019 918.159790, 606.144287 920.437927, 603.482910 920.851746, 601.871826 923.621582, 599.377930 925.477722, 596.696167 924.657410, 593.997009 924.467407, 591.846558 925.393555, 590.544861 927.974548, 588.802185 930.169128, 589.524597 932.294434, 589.017334 934.218750, 589.605652 935.920898, 592.668701 937.493164, 591.365295 940.596436, 594.136902 941.064453, 596.619263 942.234253, 599.335449 942.849792, 599.868408 945.452271, 601.866638 946.494934, 603.757874 948.756714, 606.995178 951.171387, 610.592407 953.606323, 611.579224 956.314636, 614.729614 958.723022, 616.914307 960.559265, 617.202454 961.582092, 619.053711 961.574097, 621.617859 963.807739, 623.865540 964.816162, 625.457520 965.180786, 628.788208 966.287903, 632.032471 968.431091, 631.663208 969.623718, 634.148499 970.127319, 636.720947 971.226990, 637.326782 972.982666, 639.596436 974.930176, 640.257263 978.231934, 642.948364 980.162354, 643.632812 983.159607, 644.058655 985.344116, 644.601013 987.001221, 645.748230 987.703491, 646.916748 988.360291, 647.108154 989.387695, 648.153198 989.105469, 650.470459 987.125244, 654.837524 988.028076, 658.007507 992.074707, 660.353516 993.372559, 662.807617 993.867615, 666.081909 993.650024, 668.849731 992.312500, 671.472473 990.197388, 673.158936 992.559204, 673.564331 990.659058, 675.101196 988.596741, 676.379150 990.187622, 677.943420 989.909363, 678.529785 992.650635, 678.643616 996.566040, 679.669067 1000.157288, 680.574341 1002.529419, 682.404053 1007.909302, 685.408081 1012.716309, 688.930481 1016.776550, 693.638000 1019.552246, 700.371948 1021.515320, 703.575867 1022.924988, 708.383911 1021.261719, 713.755676 1019.755981, 717.999878 1016.395752, 721.386169 1013.650513, 723.497437 1012.066284, 724.684387 1011.894836, 726.320251 1010.042664, 727.431519 1010.493774, 728.680725 1008.177490, 731.101440 1006.068298, 731.711182 1006.201111, 732.761841 1005.608765, 735.094055 1002.107483, 736.316406 1002.507507, 736.840698 1003.416260, 737.418152 1004.154968, 737.174316 1005.603333, 738.016235 1006.026794, 739.036743 1006.370056, 739.740356 1006.640320, 739.859680 1007.596985, 740.724060 1008.539612, 742.309814 1009.724915, 742.179565 1011.957520, 741.558044 1013.897644, 741.041443 1015.011963, 743.065125 1014.791016, 742.897278 1016.109924, 744.362183 1017.323669, 745.832581 1021.000305, 745.053711 1022.733582, 746.119873 1022.389771, 747.379761 1022.192200, 749.362671 1022.648376, 750.608887 1021.990356, 752.103271 1021.678894, 753.199097 1022.031860, 754.655518 1023.312927, 756.398926 1024.000000, 757.224426 1022.007629, 760.159241 1022.794922, 762.410461 1022.514709, 763.990234 1022.200134, 765.053589 1021.570312, 766.967773 1020.791199, 769.313782 1019.918884, 771.560913 1019.993896, 772.969482 1018.641541, 774.328857 1016.977783, 776.004761 1015.932678, 782.198975 1014.743225, 784.514038 1012.558411, 786.848694 1010.705933, 788.183716 1010.017578, 789.604370 1009.561646, 790.910889 1008.442566, 791.467773 1007.794495Z M1418.673828 100.308655 L1418.909180 98.487244, 1419.455078 96.497620, 1418.668091 95.674194, 1420.149170 94.791870, 1419.237549 93.685364, 1419.461426 92.939209, 1419.808716 92.266724, 1419.790894 90.723450, 1419.369751 88.926880, 1421.261353 87.527100, 1422.038208 85.694580, 1423.209717 84.639038, 1423.017822 82.545593, 1421.376343 81.853821, 1422.209717 80.911072, 1422.906494 78.565002, 1422.866333 75.152771, 1423.029297 72.140686, 1422.735474 69.137085, 1422.368774 66.161438, 1422.122681 63.629700, 1423.021240 62.081177, 1423.699707 59.451843, 1423.951538 56.719177, 1422.833618 55.776733, 1423.899170 54.931641, 1425.534058 53.232666, 1427.726562 50.693054, 1428.934570 47.896790, 1431.295654 46.709534, 1433.302002 45.892761, 1434.817871 44.948853, 1433.930298 43.095093, 1435.425049 42.854004, 1437.704956 42.253357, 1436.376709 40.277344, 1437.527466 40.758057, 1439.934692 42.088501, 1440.103882 38.815308, 1439.572266 37.025085, 1440.558472 37.467285, 1442.510498 38.088074, 1441.610718 36.837219, 1442.505371 36.882507, 1444.163696 37.100464, 1443.762207 36.091614, 1445.569580 36.117859, 1445.798340 34.743958, 1446.970093 32.892700, 1449.655029 30.870850, 1448.857056 29.657166, 1449.823364 29.429749, 1451.797363 28.812439, 1453.099609 26.386963, 1453.347046 24.211426, 1453.555298 21.521729, 1453.606934 19.458374, 1453.878662 17.620728, 1454.075439 16.351624, 1454.843872 15.741516, 1453.713623 14.549194, 1454.986572 14.599426, 1455.264648 12.957581, 1456.048218 11.024292, 1457.215454 8.938965, 1459.421509 8.849487, 1461.051880 10.600098, 1463.472778 10.884216, 1465.897827 11.252625, 1468.246460 11.599426, 1469.854614 13.863525, 1472.731079 14.986328, 1475.002686 15.315491, 1477.093506 15.113892, 1479.256714 16.233337, 1480.880859 18.062073, 1483.150146 17.933655, 1484.824829 18.190247, 1486.240967 19.424255, 1488.174805 20.450745, 1490.460938 19.849548, 1492.357300 20.329224, 1494.966064 21.487671, 1497.274780 20.884460, 1499.989868 20.896851, 1502.328247 21.706970, 1504.438477 22.130371, 1506.088501 23.206665, 1507.779175 21.778625, 1509.290405 20.232849, 1511.634644 20.931946, 1513.607910 19.319641, 1516.341675 17.692993, 1519.269775 16.300903, 1521.701660 16.747131, 1523.575928 15.447144, 1526.057129 14.355530, 1528.654907 13.183838, 1530.529907 12.652893, 1531.980347 12.588074, 1533.676758 11.768372, 1534.882202 11.224548, 1536.096436 11.308594, 1538.166260 10.838928, 1540.780640 10.065979, 1543.359497 9.498596, 1545.676880 8.866333, 1545.209473 10.748352, 1548.001343 10.528809, 1548.018555 11.854614, 1547.586548 13.121765, 1548.653564 13.373047, 1547.199219 14.440308, 1548.001587 15.508789, 1546.920166 17.351929, 1547.695679 18.177673, 1548.465820 19.696045, 1549.213623 21.606934, 1550.342163 23.038879, 1551.526001 24.178528, 1552.380737 25.870178, 1553.252686 28.135254, 1554.440430 30.738525, 1552.393311 32.315369, 1554.003296 35.136230, 1552.329590 36.906860, 1553.976929 39.433899, 1554.879028 41.685913, 1553.839111 43.680176, 1553.554077 46.405823, 1552.732178 48.194214, 1553.917114 49.180969, 1554.334961 49.660217, 1552.603760 50.074707, 1551.087646 52.201965, 1549.212402 54.538452, 1546.722534 57.207458, 1549.203491 60.303345, 1550.285645 62.327576, 1550.074219 64.538818, 1550.107178 66.179138, 1548.000854 65.977783, 1545.808838 68.133789, 1543.589600 69.861511, 1544.548828 71.480835, 1544.828003 73.334595, 1544.443726 75.183960, 1543.840210 77.371155, 1543.130127 79.938538, 1545.180664 80.856934, 1543.682617 82.467041, 1546.496826 83.380920, 1549.031494 84.735840, 1551.129517 86.209839, 1550.324707 88.404602, 1551.554932 90.455811, 1552.270386 93.717102, 1555.104614 96.069397, 1555.673950 99.142334, 1556.471191 101.792053, 1556.632324 103.514404, 1556.430908 105.561035, 1556.408569 107.589966, 1556.082764 109.489624, 1558.321655 109.991760, 1558.723755 111.716125, 1559.691895 113.782654, 1560.310791 116.373169, 1561.339111 118.914429, 1563.627686 119.231567, 1563.323486 121.121887, 1565.852051 122.317505, 1567.033936 124.543945, 1569.024048 127.547424, 1571.719604 130.764648, 1574.235474 133.415955, 1575.476685 135.757507, 1577.865601 138.778931, 1579.692017 141.279236, 1582.338135 144.359070, 1588.703003 146.793762, 1595.218384 147.037048, 1601.263672 144.849915, 1604.544800 142.918823, 1606.768677 142.938721, 1611.835449 140.565308, 1616.356567 138.901978, 1621.173828 137.337708, 1626.350708 135.636780, 1631.231812 133.897644, 1632.873779 131.223511, 1635.414673 130.715088, 1638.288086 130.669678, 1637.547485 128.329468, 1639.284058 127.736206, 1641.852173 126.105042, 1644.599731 124.578674, 1647.220215 124.118469, 1649.388428 122.656616, 1650.920654 122.024475, 1652.041504 121.743713, 1653.602051 120.703735, 1655.966919 119.382751, 1658.013672 118.033020, 1660.097168 116.782410, 1662.421265 115.364685, 1665.703857 115.408264, 1669.297974 113.551025, 1672.025757 112.067261, 1674.521973 113.310303, 1677.085205 114.761169, 1680.091675 116.423218, 1682.873291 116.821533, 1685.222656 116.064819, 1686.979126 115.167175, 1689.056030 114.412109, 1691.883667 114.377686, 1693.932739 112.422607, 1696.256470 111.948425, 1699.688110 110.407410, 1702.466919 108.917480, 1704.829834 107.710938, 1707.394043 107.831055, 1709.614502 107.173645, 1712.353394 108.431824, 1715.190063 109.925720, 1717.651245 112.475464, 1720.909302 111.612854, 1723.620239 113.378235, 1726.997437 114.566467, 1729.808228 112.866455, 1732.244873 114.188538, 1735.360840 112.768982, 1737.634521 114.007874, 1740.423706 112.545471, 1742.880371 113.562927, 1745.705688 111.002930, 1748.536255 109.988159, 1752.625977 108.727722, 1754.413940 106.688416, 1755.304565 105.446106, 1756.884277 104.469666, 1759.099365 105.333313, 1761.309082 103.773926, 1761.380249 102.264771, 1762.567993 103.430237, 1764.056885 103.887451, 1764.792603 102.816833, 1764.911133 102.116089, 1765.923096 103.659424, 1767.994873 102.673340, 1768.780518 101.285583, 1769.056519 100.649658, 1769.542114 99.675659, 1769.660889 98.198242, 1770.798218 97.912109, 1772.442505 99.544434, 1774.186401 100.941589, 1777.618774 98.709656, 1778.129883 100.343811, 1780.331299 101.091064, 1782.289551 102.085388, 1782.840576 103.981079, 1783.634277 106.194519, 1785.843628 106.852478, 1786.272949 109.146790, 1788.412109 109.589111, 1789.146606 111.744873, 1791.442871 112.326477, 1792.287964 114.618530, 1794.347656 115.428650, 1795.000854 117.509827, 1796.967041 118.047729, 1797.921021 120.137939, 1798.683716 122.350159, 1800.802490 123.301880, 1802.753174 123.925415, 1803.245117 126.150818, 1804.850830 126.912292, 1803.750244 131.323242, 1804.732300 132.739502, 1806.172363 133.832581, 1807.677368 134.592285, 1809.305664 134.752747, 1813.418335 133.569458, 1815.267456 134.802612, 1818.168823 135.402710, 1821.001709 135.285461, 1823.511230 134.819275, 1825.951782 134.186035, 1828.317749 132.786194, 1831.292969 132.282532, 1834.171143 131.039124, 1836.940918 130.519287, 1839.915771 130.398987, 1842.986450 129.761475, 1847.586792 131.425781, 1848.795532 130.562073, 1849.973389 129.518005, 1850.303833 127.697876, 1849.816650 125.514465, 1849.617310 123.671875, 1851.033569 123.257690, 1850.815552 121.382629, 1851.117432 119.213257, 1851.802124 116.687317, 1853.210083 116.036621, 1854.243164 114.093872, 1855.489380 111.996399, 1857.057617 110.498535, 1857.149902 107.180786, 1859.874023 105.817810, 1863.161133 104.212524, 1866.211060 102.452759, 1868.954468 101.311829, 1871.671265 99.508667, 1874.673462 99.113586, 1877.848877 97.437012, 1877.889038 100.356567, 1880.437744 101.249268, 1882.268433 101.679688, 1880.617065 103.580627, 1881.337280 105.781067, 1881.080200 108.219604, 1882.315674 108.942627, 1884.294434 107.840149, 1883.581909 109.717468, 1885.156860 109.725098, 1885.991455 108.313110, 1886.596558 109.572876, 1887.738647 108.695374, 1887.996948 106.852722, 1888.657959 107.277771, 1890.301270 107.213257, 1892.706909 105.953979, 1893.778687 104.462646, 1894.634033 105.092346, 1895.687500 105.818481, 1896.754272 107.329468, 1898.652222 109.604614, 1900.692993 110.907471, 1903.112793 112.717102, 1904.999146 114.511841, 1907.852173 114.167236, 1910.149170 114.431580, 1912.663940 113.873413, 1916.618042 113.582520, 1920.683228 113.946472, 1923.402954 113.453979, 1925.442871 113.794189, 1926.566528 115.730164, 1928.008423 118.248535, 1929.874268 120.950317, 1932.229370 121.021057, 1932.612671 123.475220, 1935.190796 122.799255, 1936.058472 124.386536, 1937.536865 124.837708, 1937.856689 126.905334, 1940.161987 127.827759, 1939.395996 130.208740, 1941.161499 132.466492, 1942.886108 132.953674, 1942.210693 135.377319, 1944.524170 135.862366, 1944.464355 138.027832, 1944.886963 141.469177, 1946.974243 143.739624, 1948.505005 146.432190, 1951.108765 150.217712, 1953.529663 153.860046, 1955.452271 157.084045, 1956.654541 158.938110, 1954.998413 160.666138, 1954.916016 163.928711, 1954.563477 167.221375, 1953.387329 170.955322, 1951.408447 174.495056, 1954.278687 176.951904, 1957.250977 178.851562, 1956.958374 181.524658, 1956.165405 184.092957, 1955.806030 186.496521, 1955.575562 188.891602, 1955.405396 190.869080, 1954.230835 193.263977, 1956.105103 195.178650, 1957.379639 196.830017, 1957.795044 199.124573, 1959.649292 200.910583, 1960.496338 201.656372, 1959.066162 203.977722, 1957.189087 207.823914, 1955.144287 209.176697, 1954.266113 210.116699, 1952.987915 208.149048, 1951.531250 209.479736, 1949.055054 210.343445, 1946.211670 213.290527, 1943.867676 216.352417, 1944.346191 218.985107, 1941.910278 219.309326, 1938.972656 221.733582, 1939.417480 224.288574, 1939.727051 225.528809, 1938.848999 225.915344, 1937.214233 227.018494, 1936.682129 229.718689, 1936.711670 231.883484, 1935.364990 233.338501, 1934.280273 235.164856, 1931.910278 236.206116, 1929.984009 238.641418, 1930.723389 241.062500, 1928.911377 242.497742, 1926.291870 242.779053, 1922.671143 242.920288, 1921.452759 243.973877, 1919.502808 244.312805, 1915.934692 243.142578, 1913.327637 244.875793, 1912.683960 245.878113, 1911.112793 245.771057, 1908.139893 245.869568, 1905.477905 247.383118, 1904.673950 249.340454, 1903.140991 250.843018, 1901.248657 251.581238, 1899.391602 251.262207, 1895.533081 251.971191, 1895.236938 254.852844, 1894.093262 256.735535, 1891.552246 256.898865, 1890.660156 258.326416, 1888.252808 257.092896, 1886.189819 258.643494, 1884.477539 259.696228, 1883.259399 261.617981, 1881.781006 262.688721, 1881.968262 264.142456, 1881.990112 265.156128, 1879.998657 264.361816, 1876.983765 265.961548, 1875.962646 267.467651, 1873.705811 268.465027, 1870.670044 268.723022, 1866.327637 268.652405, 1862.292114 270.548401, 1858.990356 272.106934, 1855.373169 272.880493, 1852.437866 272.992981, 1849.003296 272.796082, 1847.001465 273.743286, 1844.980225 273.219849, 1843.740479 275.970886, 1841.988281 281.291992, 1840.062866 287.281677, 1838.790649 293.052185, 1838.024902 296.651733, 1838.014771 300.228577, 1838.260376 305.194885, 1839.579102 308.690674, 1840.650757 313.004150, 1842.632324 316.059387, 1845.038696 321.473938, 1847.143188 327.210571, 1850.445190 332.085205, 1852.231934 333.986633, 1852.869263 336.338074, 1853.633545 337.671997, 1854.432983 338.771729, 1853.912476 340.393127, 1855.816284 344.308533, 1858.797241 347.526123, 1862.402222 350.112244, 1862.875000 354.236816, 1863.424194 358.764587, 1864.071289 362.738098, 1864.174561 365.056519, 1864.416382 367.435669, 1864.993530 371.971619, 1866.915894 375.271118, 1868.054321 377.312805, 1868.865845 380.569702, 1869.465820 384.090088, 1869.736084 387.217834, 1870.434082 390.110962, 1870.744019 393.831726, 1872.543701 395.829407, 1873.367676 396.944641, 1872.896973 398.199158, 1871.274170 400.506409, 1871.499634 404.408997, 1871.431152 407.460815, 1871.121216 410.113403, 1870.834229 412.362427, 1869.755249 414.161499, 1868.722778 417.151611, 1868.901123 419.672058, 1867.953613 422.158997, 1866.893188 427.642395, 1864.977905 432.851929, 1864.356079 438.368591, 1863.428101 443.550232, 1862.597778 449.089355, 1862.470825 454.872986, 1863.947021 458.038086, 1863.458374 462.653381, 1862.530273 467.165100, 1863.597290 469.421387, 1863.188232 471.622375, 1862.078857 472.697571, 1861.802734 475.166382, 1860.493896 477.142944, 1861.418579 477.993652, 1860.615967 478.940979, 1858.703247 479.522827, 1858.327148 483.852783, 1857.413574 487.770020, 1856.045898 489.645447, 1855.214600 493.676941, 1854.020752 497.968689, 1852.194214 502.823303, 1851.198975 507.027771, 1848.840576 510.399963, 1847.566650 513.906616, 1845.013794 518.160217, 1842.169067 523.276855, 1839.069946 528.587280, 1837.530396 533.511658, 1836.109619 538.465149, 1834.657837 543.937622, 1833.280640 549.900757, 1832.904907 554.148193, 1831.922729 558.498779, 1830.771240 562.909912, 1829.285645 567.012451, 1827.280518 571.301270, 1825.166260 575.543396, 1822.244385 579.515503, 1819.481323 583.021484, 1816.667480 586.238464, 1815.020874 588.879639, 1812.526733 591.440796, 1810.941040 593.972290, 1808.951782 595.922485, 1807.394287 597.615479, 1805.126709 598.332275, 1802.511475 598.741821, 1799.408325 600.542175, 1799.545166 602.279053, 1797.985474 603.707275, 1795.552612 604.086182, 1793.345703 606.256653, 1791.625366 609.669067, 1789.969482 610.457031, 1789.342651 613.473999, 1786.077881 613.295288, 1782.839600 613.273193, 1781.029663 616.008301, 1780.669434 617.157104, 1780.505615 617.953857, 1778.648315 616.969055, 1777.064209 618.998840, 1774.905151 620.574097, 1770.926147 620.264771, 1769.049683 622.471802, 1767.447144 624.264221, 1765.356445 624.768127, 1763.045776 624.931885, 1761.049683 624.373413, 1760.173096 625.276489, 1759.835693 625.782654, 1758.824829 624.803345, 1755.149170 624.896423, 1751.670288 625.408081, 1749.675781 628.287354, 1746.017822 629.023987, 1744.213867 632.389771, 1740.434937 632.337402, 1737.492554 632.375000, 1734.655029 632.294006, 1729.671021 631.863770, 1726.521973 632.306458, 1723.793213 632.160034, 1720.089478 631.689758, 1716.527588 631.165649, 1713.172607 630.949219, 1710.343384 630.203857, 1707.940796 630.522461, 1705.028320 630.677185, 1703.405762 632.679810, 1702.027588 634.283325, 1699.656738 634.535706, 1696.585327 634.895752, 1693.307007 635.437256, 1691.818970 633.482544, 1689.487915 631.778809, 1687.656982 629.500183, 1685.558350 627.102051, 1683.502319 624.571655, 1681.526733 622.192627, 1679.431641 619.986084, 1676.654297 617.720093, 1673.219360 615.901245, 1668.885620 616.543762, 1665.500488 617.807373, 1661.995239 618.641968, 1661.819092 621.904297, 1661.826172 624.866699, 1659.282104 626.460205, 1657.041260 627.922852, 1656.076782 629.955200, 1654.220459 629.002808, 1652.199951 627.981018, 1649.523315 626.705566, 1647.348389 628.219116, 1644.935425 626.614685, 1642.621826 625.219055, 1641.611328 624.728882, 1642.077637 623.086548, 1640.261230 623.198120, 1638.716431 622.940674, 1636.595215 621.917542, 1635.804199 624.053711, 1635.043579 623.428101, 1633.677368 624.153564, 1632.863037 624.295898, 1632.188354 623.704590, 1630.390747 623.251831, 1628.526611 624.096985, 1626.815552 624.960571, 1625.505493 626.458740, 1623.674805 626.939026, 1621.104614 628.693237, 1621.690186 630.193848, 1620.539795 630.269653, 1619.530151 631.291626, 1616.858032 631.586548, 1617.799072 633.215027, 1616.978638 634.872437, 1617.172729 636.165527, 1615.563843 636.485901, 1614.628418 637.542908, 1614.200195 640.352783, 1614.163208 642.889526, 1614.567139 644.424805, 1615.884277 646.124878, 1617.428711 647.379028, 1617.408813 647.916992, 1615.897949 647.581909, 1614.280640 649.249756, 1613.799683 652.445923, 1613.892578 655.757812, 1613.691284 657.847656, 1611.379761 657.115295, 1610.141602 660.343140, 1609.843872 663.454407, 1611.121460 667.203857, 1613.442871 670.973999, 1614.757935 674.258667, 1615.046997 677.195679, 1616.327148 678.928711, 1616.555908 680.965454, 1617.229736 684.265381, 1618.252930 687.762207, 1618.650269 690.244202, 1618.618408 692.478760, 1619.273804 695.733337, 1619.068115 698.869141, 1620.382812 702.688354, 1621.477661 706.997253, 1620.448120 709.884644, 1618.266724 713.512573, 1616.776733 716.653931, 1615.125732 719.629089, 1615.730957 723.475708, 1614.056030 728.310974, 1612.329102 733.384521, 1610.184326 736.904541, 1607.349243 739.344238, 1605.221924 743.076660, 1606.503174 745.777222, 1604.579590 746.115112, 1604.189697 748.549866, 1601.998047 750.369385, 1601.524048 752.747803, 1600.831055 755.969360, 1601.458252 758.491333, 1601.814087 760.239502, 1600.235718 759.602417, 1598.017578 760.623169, 1595.372192 762.045288, 1591.666504 759.718384, 1587.079346 757.567993, 1584.366577 759.127930, 1582.588867 760.445435, 1580.933105 760.953857, 1580.082397 760.265137, 1578.113159 760.341980, 1575.083984 760.983826, 1572.338989 763.590149, 1570.155762 764.900513, 1567.490845 765.243774, 1564.157471 766.910156, 1561.316528 768.389404, 1561.609985 768.828003, 1560.117798 769.135315, 1557.861938 769.183411, 1553.018921 770.065857, 1547.293579 771.060974, 1542.249268 771.623840, 1537.264282 774.398804, 1532.153809 776.862854, 1528.299194 780.476624, 1525.190674 783.634644, 1523.043579 786.453857, 1522.554077 788.955933, 1520.883301 788.720093, 1520.578003 790.879089, 1518.857544 790.501404, 1517.760742 792.483276, 1514.733887 792.928467, 1511.291016 793.724976, 1508.556030 795.276245, 1506.147583 797.137085, 1504.077148 799.228394, 1501.558716 800.811768, 1498.985596 800.723755, 1495.905518 800.658508, 1492.756836 800.508301, 1489.016968 802.082642, 1486.043945 802.910034, 1482.835571 802.511475, 1480.165283 803.436646, 1477.001709 802.894226, 1473.860718 804.249939, 1470.049316 803.642212, 1466.888428 802.771484, 1463.531982 803.467529, 1460.441162 802.804077, 1456.613281 803.926636, 1453.060303 802.799805, 1449.597900 804.028198, 1446.461670 803.855530, 1442.903320 803.346680, 1440.136108 804.843018, 1438.967407 803.813965, 1436.306885 804.778503, 1432.979980 805.624817, 1428.628296 806.211975, 1426.462524 807.149231, 1426.060669 805.076416, 1422.336304 806.795349, 1419.456299 807.431519, 1415.418945 807.857117, 1411.837524 806.967590, 1408.479126 805.666138, 1406.116699 806.474731, 1404.587036 806.769226, 1404.102783 805.624878, 1399.786011 806.224609, 1395.903931 804.573120, 1391.776978 802.761292, 1389.312988 804.358521, 1387.049072 805.254028, 1386.621704 806.456238, 1385.575684 806.492554, 1384.172852 805.553711, 1380.891357 804.557129, 1377.271240 805.055176, 1374.549194 804.657349, 1371.905273 804.258484, 1368.868652 804.395203, 1366.259033 804.413879, 1364.597412 803.153259, 1361.999756 803.929932, 1360.281616 802.566711, 1359.119751 804.114258, 1358.300659 803.521851, 1356.739746 802.197327, 1353.738770 803.699280, 1351.785156 803.133789, 1349.931152 802.458008, 1347.058960 802.106201, 1344.315552 800.190674, 1341.880859 799.460693, 1340.383545 798.563599, 1338.348267 799.346008, 1336.830078 798.767334, 1337.407471 796.674561, 1334.319092 795.254639, 1331.796387 793.970093, 1329.482788 793.255737, 1327.734497 793.001343, 1326.907227 792.234070, 1325.077026 792.206299, 1323.211426 790.986572, 1320.518677 789.902954, 1319.145386 790.878540, 1317.947754 789.730347, 1314.801147 789.826721, 1312.010254 790.084595, 1309.223511 789.560303, 1306.494873 789.194946, 1304.835571 789.669556, 1303.849609 789.314331, 1303.113281 788.824768, 1301.795654 787.465942, 1299.728027 784.932739, 1295.021118 781.592834, 1291.388916 781.351685, 1288.552368 780.406738, 1285.169800 779.401917, 1279.638794 778.555786, 1274.959473 779.026794, 1272.039185 780.036499, 1268.867920 781.562256, 1268.560059 784.272522, 1267.734985 786.844238, 1269.587769 789.561157, 1269.733887 792.701965, 1271.613281 795.027710, 1272.678101 797.356689, 1269.852051 796.878906, 1268.166382 799.180298, 1269.137451 801.228027, 1266.372803 801.477600, 1267.600830 803.918152, 1266.192017 803.253601, 1263.681030 803.145264, 1262.515625 803.698914, 1262.975220 804.499329, 1264.240356 805.445618, 1265.896484 806.105591, 1267.550781 806.756226, 1269.405396 807.631714, 1270.318848 808.605042, 1270.880615 809.296753, 1271.228882 811.087463, 1272.815796 812.057617, 1272.883667 813.530884, 1274.591187 815.230957, 1276.273193 814.935303, 1276.186401 816.258301, 1277.802979 817.501587, 1279.386597 817.302673, 1279.351685 818.651978, 1280.098145 820.521057, 1280.622070 822.297668, 1281.766968 823.255554, 1282.975342 823.573669, 1282.387817 824.779602, 1283.031128 827.383057, 1285.716919 829.696655, 1285.026855 832.726379, 1287.046875 835.014709, 1289.692261 834.991211, 1288.578613 837.346191, 1289.896362 840.022461, 1291.463501 842.598633, 1293.261230 844.489014, 1292.933960 847.254272, 1291.936157 850.042725, 1292.585571 852.626831, 1292.933472 854.753540, 1294.451416 854.947632, 1293.835205 856.051392, 1295.003906 857.389343, 1295.500854 859.710327, 1295.365112 862.662415, 1296.564209 865.359253, 1297.894043 866.791260, 1295.924072 867.866760, 1297.699707 869.393982, 1298.808472 871.013977, 1300.004761 873.762817, 1302.091064 876.357727, 1303.717163 877.688782, 1301.317749 878.486084, 1303.515137 880.959534, 1303.124756 883.235474, 1304.107178 886.157349, 1301.507812 887.332886, 1301.522217 889.859619, 1300.838257 892.385437, 1300.601074 894.741882, 1298.333862 895.745483, 1298.473389 898.389526, 1299.597534 900.003479, 1300.352905 900.925842, 1299.052979 900.803528, 1299.030396 901.609253, 1298.808350 902.262390, 1297.182495 901.899353, 1295.817505 903.117004, 1294.350586 904.694092, 1293.847900 905.890991, 1294.003174 906.864014, 1294.026978 908.334961, 1292.565918 910.259033, 1291.287109 912.486938, 1290.352417 915.246460, 1289.664307 917.981689, 1291.019287 920.431641, 1291.633545 922.150513, 1292.280884 923.421387, 1290.986450 925.155457, 1291.794922 927.573486, 1292.395996 930.326416, 1295.963135 930.191467, 1299.166992 930.903931, 1301.067017 931.120605, 1300.689087 933.184326, 1299.728271 936.522583, 1298.871704 939.072632, 1298.315308 941.029602, 1299.375977 942.421875, 1297.885010 942.603149, 1297.561035 944.507568, 1295.056030 942.696045, 1291.920654 943.046570, 1288.868896 943.227783, 1286.105103 943.876526, 1284.263550 944.583557, 1282.833130 942.597778, 1280.771118 943.663208, 1278.547852 944.383362, 1275.145752 944.932068, 1271.369385 945.243896, 1269.067261 947.659485, 1265.822144 949.318481, 1262.289062 950.216187, 1259.530396 952.497681, 1259.317261 955.503906, 1258.322388 958.402039, 1258.434082 961.643250, 1256.965210 964.169189, 1256.989258 966.100220, 1256.037964 966.687500, 1254.318115 966.817932, 1251.979248 967.037109, 1248.960815 967.025879, 1245.764771 966.784546, 1242.438599 966.448914, 1238.957153 966.777527, 1235.603271 967.181519, 1234.365723 965.469788, 1232.782959 962.839722, 1230.828735 960.655823, 1230.152222 958.490112, 1227.856567 957.485962, 1226.524902 959.223145, 1225.908447 959.564331, 1225.979004 957.507141, 1225.349243 955.184082, 1224.131958 955.758057, 1223.061890 957.483582, 1223.297363 959.525085, 1223.712280 961.351257, 1224.381104 962.740417, 1224.003052 963.395264, 1224.019165 964.966187, 1222.867310 965.573364, 1222.555786 968.953796, 1220.772461 972.826477, 1217.757324 976.048889, 1214.005493 978.336670, 1211.228149 982.590332, 1207.172241 985.396423, 1203.469604 986.606079, 1201.209351 986.879578, 1199.410156 986.389526, 1198.108887 986.144531, 1196.167603 985.805481, 1195.178833 983.056824, 1192.290894 982.572205, 1190.598267 982.860168, 1190.379517 979.847900, 1187.310669 982.707397, 1183.838379 984.029907, 1181.926758 985.142456, 1180.416016 985.312256, 1177.785767 985.310852, 1175.634399 986.885681, 1173.940918 987.727173, 1172.153076 988.552734, 1170.716553 989.338501, 1169.203491 990.112305, 1168.231812 990.507385, 1166.637329 991.256653, 1164.941895 991.075439, 1164.992676 992.429260, 1163.271484 994.006897, 1163.551147 996.497375, 1162.359497 997.337830, 1160.470215 998.511658, 1157.882935 999.445312, 1160.696533 1002.147583, 1161.381348 1003.193054, 1160.826050 1003.468018, 1159.175537 1002.660645, 1157.804810 1003.755981, 1157.300049 1005.426208, 1155.037231 1006.355835, 1153.234985 1008.003601, 1152.407593 1008.884033, 1151.233765 1009.797424, 1148.777832 1010.498779, 1147.904541 1012.304321, 1147.054077 1013.995728, 1146.122314 1015.150513, 1143.798218 1013.840271, 1140.700562 1013.717041, 1138.869629 1012.137451, 1136.781372 1012.004639, 1135.741455 1010.622314, 1134.866699 1010.106140, 1133.354492 1008.428528, 1132.321167 1006.229553, 1130.390259 1005.127258, 1129.327393 1003.835999, 1129.355591 1001.996338, 1128.409058 1000.889282, 1127.866455 999.611206, 1127.178833 998.349976, 1121.608643 995.594360, 1120.673340 993.703247, 1120.023682 991.971008, 1119.977661 990.419922, 1118.776123 988.333252, 1117.307495 986.005981, 1115.774414 983.973511, 1114.839355 982.133545, 1115.033081 979.912964, 1113.043335 976.943115, 1110.547119 975.092834, 1107.573486 974.406982, 1104.261353 975.829590, 1102.276245 975.359863, 1099.654053 974.947754, 1095.671875 974.924133, 1091.792236 976.019958, 1089.051636 974.778931, 1086.620605 973.018921, 1083.862915 972.330933, 1081.898315 969.597961, 1079.142700 967.909424, 1077.153320 961.312561, 1076.645630 959.729004, 1076.707153 957.456726, 1076.737915 955.589600, 1075.217407 954.444580, 1074.491821 953.062988, 1069.176758 947.143799, 1068.817505 943.798645, 1068.611816 940.409790, 1067.344604 937.054199, 1065.942505 934.230469, 1066.046265 931.404785, 1065.927246 928.212280, 1064.655518 924.612061, 1065.049561 921.514709, 1064.492554 917.453735, 1065.779541 914.508667, 1066.568359 910.381165, 1067.930908 904.959778, 1066.795166 902.425476, 1067.710205 900.978760, 1069.029785 900.476746, 1070.572754 899.496826, 1072.653198 899.150757, 1074.053101 898.565918, 1075.385986 897.798645, 1074.890625 896.273376, 1075.394043 896.800720, 1076.198364 896.508484, 1077.760620 896.899475, 1080.343262 895.857117, 1082.525513 894.691284, 1085.808716 896.063599, 1088.018677 896.203796, 1090.864624 898.129211, 1093.474121 896.744141, 1095.098389 899.059998, 1100.386353 902.649414, 1103.218872 904.619202, 1104.674316 903.058411, 1106.662231 900.393616, 1109.454590 899.220093, 1110.125366 896.991699, 1111.494019 895.191284, 1111.635254 892.726440, 1112.621338 891.045837, 1112.084839 888.420288, 1112.530640 886.888428, 1110.536743 884.884399, 1106.666626 884.069946, 1101.903809 884.068298, 1098.285522 883.906372, 1094.490723 883.589233, 1089.941040 882.331360, 1087.075806 882.603149, 1084.681274 882.305725, 1080.970459 881.616455, 1077.435181 880.854614, 1075.027710 881.448608, 1072.021118 880.871033, 1068.876831 880.630859, 1066.729370 880.421875, 1065.104370 879.957336, 1062.901245 879.214294, 1061.093628 879.825073, 1059.380493 880.619629, 1057.740479 881.482544, 1055.895752 880.615906, 1053.999634 881.004700, 1052.429688 881.698425, 1050.520752 881.517761, 1048.043823 881.609314, 1046.312866 882.359619, 1044.836670 883.624390, 1043.467896 884.762207, 1041.599609 884.562866, 1039.601318 886.018188, 1037.871704 885.098389, 1035.816406 885.294373, 1033.526367 885.200256, 1031.950073 883.369751, 1030.222412 881.552185, 1028.412354 879.824524, 1026.849609 878.054810, 1025.742432 875.861084, 1024.595825 873.472229, 1023.349976 871.340515, 1022.242737 869.715942, 1021.607239 868.149963, 1020.418091 868.615234, 1019.758667 868.672668, 1019.986816 868.133057, 1019.961792 866.518677, 1018.054443 864.039673, 1016.074036 864.470337, 1015.434570 863.248169, 1014.042175 863.226013, 1013.461853 861.497314, 1011.700195 859.426270, 1009.990112 858.403687, 1008.251221 857.046814, 1006.624939 855.906982, 1005.804504 853.689331, 1005.106689 850.214905, 1003.119263 850.039917, 1001.584229 848.922852, 1000.245605 846.291382, 998.823608 843.990356, 999.467651 841.612610, 999.999329 838.823608, 1000.562988 836.467163, 1000.281677 834.174805, 999.341492 832.527832, 999.083679 831.241943, 998.956665 829.211670, 999.829590 826.337402, 998.925476 823.710022, 998.827026 821.264648, 998.539795 817.984070, 998.285339 815.085571, 996.583862 811.424194, 995.229004 807.831421, 994.094543 803.978943, 993.313965 800.374390, 992.785583 797.127502, 992.215271 794.333008, 992.681946 791.497620, 991.385925 790.182129, 991.858276 789.679810, 992.509460 787.966064, 992.336609 784.541504, 993.779297 781.565979, 994.091736 777.696655, 994.359314 774.673401, 994.834595 771.853271, 995.394470 769.216125, 996.519714 765.972290, 996.974854 762.471436, 998.043518 759.693787, 999.079590 755.859009, 1001.209229 750.298218, 1002.446533 745.033813, 1001.682007 742.389099, 1002.155518 739.869995, 1001.462952 738.620605, 1002.357788 736.921448, 1001.661316 734.575684, 1002.007446 732.589966, 1002.560242 729.676880, 1001.299377 728.168823, 1001.844482 725.926514, 1004.918884 725.213623, 1004.997864 722.776001, 1006.272949 722.382812, 1007.909058 720.514404, 1009.655457 718.248901, 1010.852600 716.139648, 1011.290344 714.771362, 1012.580139 714.963989, 1013.559631 711.734375, 1013.970764 708.911621, 1013.606079 706.591675, 1012.885742 704.626221, 1011.935364 702.994141, 1010.869385 702.312622, 1011.348938 702.091553, 1011.786133 701.801636, 1013.305908 701.803711, 1012.996094 700.065063, 1013.548279 698.857178, 1014.866455 698.538330, 1014.670898 697.372070, 1016.121582 697.032227, 1017.232605 694.175842, 1016.924011 692.899292, 1017.528625 692.412109, 1018.194458 691.224365, 1019.729431 690.221680, 1021.821533 688.637146, 1022.328918 686.268677, 1023.911316 684.317993, 1025.290771 681.944580, 1025.142578 680.425415, 1025.205811 679.496277, 1026.167480 679.252930, 1026.112915 675.524536, 1026.111206 672.419617, 1026.724365 669.812866, 1027.092651 667.365723, 1026.799683 665.043091, 1027.000122 662.740356, 1026.610596 658.259399, 1025.320923 653.026001, 1024.050171 650.211060, 1022.791138 647.942627, 1021.578064 645.067261, 1019.954956 642.257568, 1019.049988 641.933899, 1018.271057 641.075684, 1017.283020 640.242676, 1015.811279 638.971680, 1013.446106 636.410767, 1009.496460 633.222046, 1006.781616 631.470642, 1006.335388 629.700317, 1002.742676 625.203186, 998.350037 621.507935, 994.586731 618.216064, 991.196350 615.175354, 989.001892 613.583496, 986.273987 610.427795, 982.992798 607.014343, 981.390198 605.315308, 980.440369 603.995483, 979.910522 601.736877, 979.293396 600.135498, 978.578552 598.850098, 976.448730 596.537720, 974.550964 594.121094, 972.936340 591.961487, 971.455811 589.457397, 969.653076 587.888672, 968.947144 586.291626, 968.185242 584.101929, 968.081055 581.675720, 967.964050 579.463623, 968.842285 578.288940, 968.287842 575.434631, 967.301514 571.488403, 965.838135 566.096313, 963.519226 562.998962, 961.913025 557.501953, 961.131409 552.887207, 959.395874 551.304138, 958.686340 549.074219, 959.477722 547.436646, 959.339844 545.458008, 959.542419 542.543213, 961.285583 538.207886, 960.159790 533.921570, 959.733948 529.598999, 959.827942 525.317322, 959.910034 520.376343, 960.781616 515.100830, 961.105469 512.439087, 961.007935 511.152100, 961.948303 511.515808, 962.957642 506.550232, 962.872192 503.734558, 963.551392 499.961182, 963.316101 495.566406, 963.114197 491.425964, 963.196106 487.222717, 962.934387 483.630981, 962.598999 480.121643, 963.699951 477.576904, 965.026306 474.286316, 964.585327 471.296692, 965.045044 468.995544, 964.861572 465.696106, 965.544189 461.956604, 965.177185 459.603394, 966.104187 457.192627, 966.495361 454.084473, 967.809143 451.531189, 969.379272 448.287659, 970.849976 445.360718, 971.492554 441.875671, 972.775818 438.596680, 972.886414 435.668335, 973.533081 432.745911, 975.039246 430.094543, 975.455444 427.128784, 976.007751 424.017151, 975.362610 421.508301, 975.531250 419.535034, 976.494019 418.116028, 977.523560 416.690430, 977.153198 415.697021, 977.186401 414.343506, 978.820862 412.619629, 978.306091 410.561890, 978.076050 409.086609, 979.220825 408.292603, 981.221619 407.977661, 983.779907 405.542725, 984.503845 402.435913, 984.422729 399.788086, 984.116516 397.589661, 983.665771 395.865234, 984.093811 394.233582, 984.331055 392.685364, 983.784058 391.469421, 984.145630 389.781555, 983.419189 387.276367, 983.335876 384.692078, 981.738770 382.933716, 981.576538 381.543945, 981.569214 380.467712, 982.515686 379.428833, 982.543945 377.231079, 982.620422 374.758911, 984.226807 373.011169, 984.498596 370.548340, 983.707947 369.008240, 983.770752 367.745117, 983.818848 366.756348, 984.723267 365.803162, 984.637756 364.326843, 985.992432 362.638672, 986.149902 361.107239, 987.051147 359.908936, 987.515442 357.788635, 986.879944 357.040100, 987.807129 355.545898, 987.598877 353.375549, 988.375427 352.339294, 989.368408 351.341125, 990.876587 349.617004, 992.261169 347.502258, 993.004272 344.602234, 993.897339 341.386780, 993.618652 339.254272, 994.754578 338.152039, 994.198853 334.874268, 993.265869 334.086121, 993.402527 331.632385, 992.732666 329.504456, 992.507141 327.882874, 992.624817 326.970642, 993.455505 328.982971, 994.724670 327.873657, 996.391174 327.794556, 997.781250 327.164673, 998.920105 327.184814, 1000.148621 327.676025, 1001.240479 327.579468, 1001.316772 326.216492, 1002.594666 325.998230, 1005.154602 326.085632, 1007.045349 326.023926, 1009.346069 325.876953, 1011.825500 323.671448, 1009.505737 320.388428, 1011.510864 318.932312, 1010.534607 316.272644, 1010.482788 314.316101, 1012.580505 313.517395, 1013.347229 312.218262, 1011.816589 310.944885, 1011.168884 309.930542, 1012.657654 308.899109, 1014.865112 308.881958, 1017.462708 310.085083, 1020.199707 311.227539, 1022.800720 312.415222, 1024.905396 313.340942, 1025.635864 311.828674, 1027.347046 311.614258, 1029.210693 310.607971, 1030.490723 308.680908, 1031.281372 306.949341, 1031.697510 305.010437, 1031.975464 303.134644, 1032.196899 301.363037, 1033.609253 301.771057, 1035.232178 302.158752, 1035.343506 300.413452, 1037.066284 300.597717, 1038.698975 300.530029, 1038.401978 298.497620, 1039.609863 297.855835, 1041.097900 297.616577, 1042.832031 298.779724, 1043.987305 298.157410, 1044.246094 293.577698, 1045.777466 293.139587, 1047.400024 291.879639, 1050.675903 295.276245, 1052.117065 294.839355, 1050.811035 290.364380, 1055.049927 291.308044, 1057.342163 289.853638, 1059.026001 286.900391, 1060.583496 284.234741, 1062.467163 283.300720, 1063.580078 280.963135, 1064.225830 279.048218, 1064.656494 277.325439, 1065.804077 276.369019, 1067.971191 274.893860, 1069.700928 273.349731, 1071.773560 271.702087, 1073.838623 270.157471, 1075.205078 268.781616, 1076.478760 267.938171, 1076.907227 265.015686, 1079.069214 262.343384, 1080.469482 259.930359, 1081.659912 257.653748, 1083.484741 256.610962, 1083.446533 254.539673, 1083.441162 252.418945, 1084.994873 250.429749, 1085.980347 248.612732, 1087.344604 249.625610, 1088.944824 251.157227, 1089.634766 249.427979, 1090.285522 250.614380, 1091.275146 250.034302, 1092.330444 249.293152, 1094.052246 248.735779, 1096.564819 248.254089, 1099.604858 247.666199, 1102.663818 247.268005, 1104.159790 245.304260, 1106.436401 244.350586, 1108.869751 243.393188, 1111.592041 243.267395, 1112.795166 240.920227, 1113.690430 239.890747, 1115.231323 240.721069, 1116.719238 239.087708, 1119.267212 239.376892, 1121.271118 237.807861, 1124.639404 237.291260, 1127.066895 236.867004, 1129.927124 237.346191, 1133.169312 237.142151, 1136.101562 236.698242, 1139.068237 235.598450, 1139.798828 233.861816, 1141.473389 234.078979, 1144.632690 232.939392, 1147.602905 231.217346, 1150.940308 230.066956, 1154.903198 229.303101, 1156.361084 227.926086, 1157.909058 228.182007, 1161.078247 228.120178, 1164.406738 226.009155, 1166.005981 224.864624, 1167.145508 225.292114, 1170.122314 225.071594, 1173.451416 226.529602, 1178.028320 227.785583, 1182.517822 227.101807, 1186.187378 225.941650, 1189.157227 224.034607, 1192.473389 221.993896, 1195.710327 221.738403, 1198.058472 220.519714, 1201.382202 220.155701, 1201.390869 217.802490, 1203.295776 217.819641, 1204.624756 216.382629, 1207.153931 216.911438, 1209.973633 216.678162, 1211.432251 215.793030, 1213.798218 215.775818, 1215.803345 215.474792, 1217.024048 215.144592, 1218.326904 216.111755, 1219.889771 216.276245, 1221.951416 216.727173, 1224.428101 217.703003, 1227.939819 218.422974, 1230.562622 218.575928, 1232.148193 219.156128, 1234.420532 219.973877, 1237.542847 220.175842, 1238.844238 219.089966, 1239.993652 220.389099, 1242.779053 220.385254, 1244.135986 219.332581, 1245.752319 220.450073, 1249.171631 221.011475, 1251.949463 221.562378, 1253.865845 220.770508, 1255.861084 220.963623, 1257.500488 220.043457, 1259.514648 220.459595, 1261.479858 219.560486, 1264.083252 218.740845, 1266.480347 219.688538, 1269.192505 219.885803, 1271.843628 219.800781, 1274.399658 219.541748, 1276.541748 219.348022, 1278.776733 219.490845, 1281.351562 219.461121, 1282.980957 218.349915, 1285.468628 218.283325, 1287.413330 219.025269, 1289.671875 218.747314, 1291.981567 218.794006, 1294.274902 218.806519, 1296.407349 219.035156, 1299.386597 219.425049, 1301.462402 220.634766, 1307.014038 220.680481, 1312.204956 220.760681, 1317.217285 222.998840, 1324.437500 223.764404, 1329.632568 223.994812, 1335.130981 224.723389, 1336.282959 224.102600, 1338.875244 224.492615, 1341.850952 224.979797, 1344.479858 225.450378, 1348.540771 225.732178, 1352.355469 226.162231, 1355.832275 226.082764, 1358.143555 226.322571, 1360.291382 226.825073, 1364.885742 226.777344, 1369.194580 226.299500, 1372.837646 225.880005, 1380.106445 224.049683, 1387.074707 220.654114, 1392.020996 215.634705, 1394.234497 211.532471, 1396.185059 207.918213, 1398.085083 204.827820, 1400.042358 201.828918, 1401.583374 199.458374, 1403.500366 197.246033, 1405.623657 193.526733, 1408.434814 188.720581, 1408.040894 186.295471, 1409.166748 183.544983, 1408.360352 181.845581, 1408.080444 180.472778, 1409.935181 179.710388, 1410.820435 175.472412, 1410.306885 172.810547, 1409.426025 171.171753, 1408.444824 169.542053, 1407.192505 168.391663, 1408.505249 167.626465, 1409.311890 165.241028, 1409.960205 162.727966, 1410.891113 161.268860, 1411.776001 159.980164, 1412.867798 157.799011, 1413.671265 155.101807, 1414.355835 152.516357, 1413.307617 151.506042, 1414.505127 150.516846, 1415.916138 148.929138, 1416.520996 145.970459, 1417.065918 143.217590, 1417.410889 140.718872, 1418.157715 138.799500, 1419.464722 137.060303, 1418.405762 134.622925, 1417.465088 132.532959, 1418.788818 130.864502, 1418.350464 128.463623, 1416.952026 127.352051, 1418.052979 126.128113, 1416.245361 125.158569, 1417.442993 124.387085, 1418.004639 123.089050, 1417.548706 121.528748, 1418.170654 119.799377, 1417.596313 118.085632, 1417.931885 116.412292, 1417.396484 115.148071, 1417.083374 113.044434, 1416.678589 111.558289, 1417.051758 109.996887, 1416.687256 107.556763, 1417.237061 105.718933, 1418.614014 104.394409, 1418.382080 102.728455, 1418.567749 101.509521, 1418.673828 100.308655Z "/>
    </clipPath>
    <filter id="dropshadow">
      <feGaussianBlur in="SourceAlpha" stdDeviation="2"/>
      <feMerge>
        <feMergeNode/>
        <feMergeNode in="SourceGraphic"/>
      </feMerge>
    </filter>
  </defs>
  <g inkscape:label="rois" inkscape:groupmode="layer" id="rois" transform="translate(0,0)" style="display:inline;" class="display_layer">
    <g inkscape:label="shapes" inkscape:groupmode="layer" id="rois_shapes" transform="translate(0,0)" style="display:inline;" clip-path="url(#edgeclip)"/>
    <g inkscape:label="labels" inkscape:groupmode="layer" id="rois_labels" transform="translate(0,0)" style="display:inline;">
    </g>
  </g>
  <svg:g id="sulci" style="display:inline;" inkscape:label="sulci" inkscape:groupmode="layer" class="display_layer">
    <svg:g id="sulci_shapes" style="display:inline;" inkscape:label="shapes" inkscape:groupmode="layer" clip-path="url(#edgeclip)"/>
    <svg:g id="sulci_labels" style="display:inline;" inkscape:label="labels" inkscape:groupmode="layer"/>
  </svg:g>
  <svg:g id="cutouts" style="display:inline;" inkscape:label="cutouts" inkscape:groupmode="layer" class="display_layer">
    <svg:g id="cutouts_shapes" style="display:inline;" inkscape:label="shapes" inkscape:groupmode="layer" clip-path="url(#edgeclip)"/>
    <svg:g id="cutouts_labels" style="display:inline;" inkscape:label="labels" inkscape:groupmode="layer"/>
  </svg:g>
  <svg:g id="display" style="display:inline;" inkscape:label="display" inkscape:groupmode="layer" class="display_layer">
    <svg:g id="display_shapes" style="display:inline;" inkscape:label="shapes" inkscape:groupmode="layer" clip-path="url(#edgeclip)"/>
    <svg:g id="display_labels" style="display:inline;" inkscape:label="labels" inkscape:groupmode="layer"/>
  </svg:g>
</svg>
